<?xml version="1.0" encoding="UTF-8" standalone="no"?>
<!DOCTYPE svg PUBLIC "-//W3C//DTD SVG 1.1//EN"
 "http://www.w3.org/Graphics/SVG/1.1/DTD/svg11.dtd">
<!-- Generated by graphviz version 2.40.1 (20161225.0304)
 -->
<!-- Title: G Pages: 1 -->
<svg width="194pt" height="78pt"
 viewBox="0.00 0.00 193.69 78.00" xmlns="http://www.w3.org/2000/svg" xmlns:xlink="http://www.w3.org/1999/xlink">
<g id="graph0" class="graph" transform="scale(1 1) rotate(0) translate(4 74)">
<title>G</title>
<polygon fill="#ffffff" stroke="transparent" points="-4,4 -4,-74 189.6895,-74 189.6895,4 -4,4"/>
<!-- 0 -->
<g id="node1" class="node">
<title>0</title>
<polygon fill="#dbdb8d" stroke="transparent" points="109.6355,-70 72.389,-70 72.389,-52 109.6355,-52 109.6355,-70"/>
<text text-anchor="middle" x="91.0122" y="-58" font-family="sans" font-size="10.00" fill="#000000">Date</text>
</g>
<!-- 1 -->
<g id="node2" class="node">
<title>1</title>
<polygon fill="#dbdb8d" stroke="transparent" points="56.0366,-44 -.0122,-44 -.0122,-26 56.0366,-26 56.0366,-44"/>
<text text-anchor="middle" x="28.0122" y="-32" font-family="sans" font-size="10.00" fill="#000000">Date.day</text>
</g>
<!-- 0&#45;&gt;1 -->
<g id="edge1" class="edge">
<title>0&#45;&gt;1</title>
<path fill="none" stroke="#c0c0c0" d="M72.1101,-53.1991C66.1298,-50.7311 59.4242,-47.9637 53.0819,-45.3462"/>
<polygon fill="#c0c0c0" stroke="#c0c0c0" points="53.176,-44.2492 50.0023,-44.0753 52.3749,-46.1904 53.176,-44.2492"/>
</g>
<!-- 3 -->
<g id="node4" class="node">
<title>3</title>
<polygon fill="#dbdb8d" stroke="transparent" points="124.7072,-44 57.3172,-44 57.3172,-26 124.7072,-26 124.7072,-44"/>
<text text-anchor="middle" x="91.0122" y="-32" font-family="sans" font-size="10.00" fill="#000000">Date.month</text>
</g>
<!-- 0&#45;&gt;3 -->
<g id="edge2" class="edge">
<title>0&#45;&gt;3</title>
<path fill="none" stroke="#c0c0c0" d="M91.0122,-51.9065C91.0122,-50.5226 91.0122,-49.0737 91.0122,-47.6308"/>
<polygon fill="#c0c0c0" stroke="#c0c0c0" points="92.0623,-47.3085 91.0122,-44.3086 89.9623,-47.3086 92.0623,-47.3085"/>
</g>
<!-- 5 -->
<g id="node6" class="node">
<title>5</title>
<polygon fill="#dbdb8d" stroke="transparent" points="185.8678,-44 126.1566,-44 126.1566,-26 185.8678,-26 185.8678,-44"/>
<text text-anchor="middle" x="156.0122" y="-32" font-family="sans" font-size="10.00" fill="#000000">Date.year</text>
</g>
<!-- 0&#45;&gt;5 -->
<g id="edge3" class="edge">
<title>0&#45;&gt;5</title>
<path fill="none" stroke="#c0c0c0" d="M109.8129,-53.4797C116.2431,-50.9076 123.5491,-47.9852 130.4227,-45.2358"/>
<polygon fill="#c0c0c0" stroke="#c0c0c0" points="130.9428,-46.1587 133.3383,-44.0696 130.1628,-44.2089 130.9428,-46.1587"/>
</g>
<!-- 2 -->
<g id="node3" class="node">
<title>2</title>
<polygon fill="#eeeeee" stroke="transparent" points="41.6355,-18 14.3889,-18 14.3889,0 41.6355,0 41.6355,-18"/>
<text text-anchor="middle" x="28.0122" y="-6" font-family="sans" font-size="10.00" fill="#000000">18</text>
</g>
<!-- 1&#45;&gt;2 -->
<g id="edge4" class="edge">
<title>1&#45;&gt;2</title>
<path fill="none" stroke="#c0c0c0" d="M28.0122,-25.9065C28.0122,-24.5226 28.0122,-23.0737 28.0122,-21.6308"/>
<polygon fill="#c0c0c0" stroke="#c0c0c0" points="29.0623,-21.3085 28.0122,-18.3086 26.9623,-21.3086 29.0623,-21.3085"/>
</g>
<!-- 4 -->
<g id="node5" class="node">
<title>4</title>
<polygon fill="#eeeeee" stroke="transparent" points="111.4488,-18 70.5756,-18 70.5756,0 111.4488,0 111.4488,-18"/>
<text text-anchor="middle" x="91.0122" y="-6" font-family="sans" font-size="10.00" fill="#000000">июля</text>
</g>
<!-- 3&#45;&gt;4 -->
<g id="edge5" class="edge">
<title>3&#45;&gt;4</title>
<path fill="none" stroke="#c0c0c0" d="M91.0122,-25.9065C91.0122,-24.5226 91.0122,-23.0737 91.0122,-21.6308"/>
<polygon fill="#c0c0c0" stroke="#c0c0c0" points="92.0623,-21.3085 91.0122,-18.3086 89.9623,-21.3086 92.0623,-21.3085"/>
</g>
<!-- 6 -->
<g id="node7" class="node">
<title>6</title>
<polygon fill="#eeeeee" stroke="transparent" points="175.2591,-18 136.7653,-18 136.7653,0 175.2591,0 175.2591,-18"/>
<text text-anchor="middle" x="156.0122" y="-6" font-family="sans" font-size="10.00" fill="#000000">2016</text>
</g>
<!-- 5&#45;&gt;6 -->
<g id="edge6" class="edge">
<title>5&#45;&gt;6</title>
<path fill="none" stroke="#c0c0c0" d="M156.0122,-25.9065C156.0122,-24.5226 156.0122,-23.0737 156.0122,-21.6308"/>
<polygon fill="#c0c0c0" stroke="#c0c0c0" points="157.0623,-21.3085 156.0122,-18.3086 154.9623,-21.3086 157.0623,-21.3085"/>
</g>
</g>
</svg>
