<?xml version="1.0" encoding="UTF-8" standalone="no"?>
<!DOCTYPE svg PUBLIC "-//W3C//DTD SVG 1.1//EN"
 "http://www.w3.org/Graphics/SVG/1.1/DTD/svg11.dtd">
<!-- Generated by graphviz version 2.40.1 (20161225.0304)
 -->
<!-- Title: 4357583704 Pages: 1 -->
<svg width="87pt" height="52pt"
 viewBox="0.00 0.00 86.51 52.00" xmlns="http://www.w3.org/2000/svg" xmlns:xlink="http://www.w3.org/1999/xlink">
<g id="graph0" class="graph" transform="scale(1 1) rotate(0) translate(4 48)">
<title>4357583704</title>
<polygon fill="#ffffff" stroke="transparent" points="-4,4 -4,-48 82.5122,-48 82.5122,4 -4,4"/>
<!-- 4357430464 -->
<g id="node1" class="node">
<title>4357430464</title>
<polygon fill="#aec7e8" stroke="transparent" points="70.0557,-44 28.1904,-44 28.1904,-26 70.0557,-26 70.0557,-44"/>
<text text-anchor="middle" x="49.123" y="-32" font-family="sans" font-size="10.00" fill="#000000">DATE</text>
</g>
<!-- 4357430520 -->
<g id="node2" class="node">
<title>4357430520</title>
<polygon fill="#eeeeee" stroke="transparent" points="38.3699,-18 -.1238,-18 -.1238,0 38.3699,0 38.3699,-18"/>
<text text-anchor="middle" x="19.123" y="-6" font-family="sans" font-size="10.00" fill="#000000">2015</text>
</g>
<!-- 4357430464&#45;&gt;4357430520 -->
<g id="edge1" class="edge">
<title>4357430464&#45;&gt;4357430520</title>
<path fill="none" stroke="#c0c0c0" d="M38.6305,-25.9065C36.5902,-24.1382 34.4273,-22.2637 32.313,-20.4313"/>
<polygon fill="#c0c0c0" stroke="#c0c0c0" points="32.8185,-19.4799 29.8637,-18.3086 31.4431,-21.0669 32.8185,-19.4799"/>
</g>
<!-- 4357430576 -->
<g id="node3" class="node">
<title>4357430576</title>
<polygon fill="#eeeeee" stroke="transparent" points="59.1514,-18 39.0947,-18 39.0947,0 59.1514,0 59.1514,-18"/>
<text text-anchor="middle" x="49.123" y="-6" font-family="sans" font-size="10.00" fill="#000000">г</text>
</g>
<!-- 4357430464&#45;&gt;4357430576 -->
<g id="edge2" class="edge">
<title>4357430464&#45;&gt;4357430576</title>
<path fill="none" stroke="#c0c0c0" d="M49.123,-25.9065C49.123,-24.5226 49.123,-23.0737 49.123,-21.6308"/>
<polygon fill="#c0c0c0" stroke="#c0c0c0" points="50.1731,-21.3085 49.123,-18.3086 48.0731,-21.3086 50.1731,-21.3085"/>
</g>
<!-- 4357430632 -->
<g id="node4" class="node">
<title>4357430632</title>
<polygon fill="#eeeeee" stroke="transparent" points="78.4027,-18 59.8434,-18 59.8434,0 78.4027,0 78.4027,-18"/>
<text text-anchor="middle" x="69.123" y="-6" font-family="sans" font-size="10.00" fill="#000000">.</text>
</g>
<!-- 4357430464&#45;&gt;4357430632 -->
<g id="edge3" class="edge">
<title>4357430464&#45;&gt;4357430632</title>
<path fill="none" stroke="#c0c0c0" d="M56.1181,-25.9065C57.3008,-24.3689 58.5454,-22.7509 59.7768,-21.1502"/>
<polygon fill="#c0c0c0" stroke="#c0c0c0" points="60.9657,-21.3267 61.9626,-18.3086 59.3012,-20.0463 60.9657,-21.3267"/>
</g>
</g>
</svg>
