<?xml version="1.0" encoding="UTF-8" standalone="no"?>
<!DOCTYPE svg PUBLIC "-//W3C//DTD SVG 1.1//EN"
 "http://www.w3.org/Graphics/SVG/1.1/DTD/svg11.dtd">
<!-- Generated by graphviz version 2.40.1 (20161225.0304)
 -->
<!-- Title: G Pages: 1 -->
<svg width="285pt" height="130pt"
 viewBox="0.00 0.00 284.68 130.00" xmlns="http://www.w3.org/2000/svg" xmlns:xlink="http://www.w3.org/1999/xlink">
<g id="graph0" class="graph" transform="scale(1 1) rotate(0) translate(4 126)">
<title>G</title>
<polygon fill="#ffffff" stroke="transparent" points="-4,4 -4,-126 280.6797,-126 280.6797,4 -4,4"/>
<!-- 0 -->
<g id="node1" class="node">
<title>0</title>
<polygon fill="#aec7e8" stroke="transparent" points="165.5719,-122 122.1078,-122 122.1078,-104 165.5719,-104 165.5719,-122"/>
<text text-anchor="middle" x="143.8398" y="-110" font-family="sans" font-size="10.00" fill="#000000">EXPR</text>
</g>
<!-- 1 -->
<g id="node2" class="node">
<title>1</title>
<polygon fill="#aec7e8" stroke="transparent" points="116.5719,-96 73.1078,-96 73.1078,-78 116.5719,-78 116.5719,-96"/>
<text text-anchor="middle" x="94.8398" y="-84" font-family="sans" font-size="10.00" fill="#000000">EXPR</text>
</g>
<!-- 0&#45;&gt;1 -->
<g id="edge1" class="edge">
<title>0&#45;&gt;1</title>
<path fill="none" stroke="#c0c0c0" d="M126.702,-103.9065C122.8452,-101.86 118.72,-99.6711 114.7604,-97.5701"/>
<polygon fill="#c0c0c0" stroke="#c0c0c0" points="115.193,-96.611 112.0508,-96.1324 114.2087,-98.4661 115.193,-96.611"/>
</g>
<!-- 8 -->
<g id="node9" class="node">
<title>8</title>
<polygon fill="#eeeeee" stroke="transparent" points="154.6803,-96 132.9994,-96 132.9994,-78 154.6803,-78 154.6803,-96"/>
<text text-anchor="middle" x="143.8398" y="-84" font-family="sans" font-size="10.00" fill="#000000">+</text>
</g>
<!-- 0&#45;&gt;8 -->
<g id="edge2" class="edge">
<title>0&#45;&gt;8</title>
<path fill="none" stroke="#c0c0c0" d="M143.8398,-103.9065C143.8398,-102.5226 143.8398,-101.0737 143.8398,-99.6308"/>
<polygon fill="#c0c0c0" stroke="#c0c0c0" points="144.8899,-99.3085 143.8398,-96.3086 142.7899,-99.3086 144.8899,-99.3085"/>
</g>
<!-- 9 -->
<g id="node10" class="node">
<title>9</title>
<polygon fill="#aec7e8" stroke="transparent" points="207.5719,-96 164.1078,-96 164.1078,-78 207.5719,-78 207.5719,-96"/>
<text text-anchor="middle" x="185.8398" y="-84" font-family="sans" font-size="10.00" fill="#000000">EXPR</text>
</g>
<!-- 0&#45;&gt;9 -->
<g id="edge3" class="edge">
<title>0&#45;&gt;9</title>
<path fill="none" stroke="#c0c0c0" d="M158.5294,-103.9065C161.7081,-101.9387 165.0995,-99.8393 168.3729,-97.8129"/>
<polygon fill="#c0c0c0" stroke="#c0c0c0" points="169.0895,-98.6042 171.0876,-96.1324 167.9841,-96.8187 169.0895,-98.6042"/>
</g>
<!-- 2 -->
<g id="node3" class="node">
<title>2</title>
<polygon fill="#aec7e8" stroke="transparent" points="95.1712,-70 50.5085,-70 50.5085,-52 95.1712,-52 95.1712,-70"/>
<text text-anchor="middle" x="72.8398" y="-58" font-family="sans" font-size="10.00" fill="#000000">TERM</text>
</g>
<!-- 1&#45;&gt;2 -->
<g id="edge4" class="edge">
<title>1&#45;&gt;2</title>
<path fill="none" stroke="#c0c0c0" d="M87.1453,-77.9065C85.7142,-76.2151 84.2007,-74.4265 82.7149,-72.6705"/>
<polygon fill="#c0c0c0" stroke="#c0c0c0" points="83.4558,-71.9205 80.7163,-70.3086 81.8526,-73.277 83.4558,-71.9205"/>
</g>
<!-- 3 -->
<g id="node4" class="node">
<title>3</title>
<polygon fill="#aec7e8" stroke="transparent" points="57.5204,-44 .1593,-44 .1593,-26 57.5204,-26 57.5204,-44"/>
<text text-anchor="middle" x="28.8398" y="-32" font-family="sans" font-size="10.00" fill="#000000">SYMBOL</text>
</g>
<!-- 2&#45;&gt;3 -->
<g id="edge5" class="edge">
<title>2&#45;&gt;3</title>
<path fill="none" stroke="#c0c0c0" d="M57.4508,-51.9065C54.1207,-49.9387 50.5679,-47.8393 47.1386,-45.8129"/>
<polygon fill="#c0c0c0" stroke="#c0c0c0" points="47.4116,-44.7546 44.2946,-44.1324 46.3432,-46.5626 47.4116,-44.7546"/>
</g>
<!-- 5 -->
<g id="node6" class="node">
<title>5</title>
<polygon fill="#eeeeee" stroke="transparent" points="78.7317,-44 58.9479,-44 58.9479,-26 78.7317,-26 78.7317,-44"/>
<text text-anchor="middle" x="68.8398" y="-32" font-family="sans" font-size="10.00" fill="#000000">*</text>
</g>
<!-- 2&#45;&gt;5 -->
<g id="edge6" class="edge">
<title>2&#45;&gt;5</title>
<path fill="none" stroke="#c0c0c0" d="M71.4408,-51.9065C71.2279,-50.5226 71.005,-49.0737 70.783,-47.6308"/>
<polygon fill="#c0c0c0" stroke="#c0c0c0" points="71.766,-47.114 70.2719,-44.3086 69.6904,-47.4334 71.766,-47.114"/>
</g>
<!-- 6 -->
<g id="node7" class="node">
<title>6</title>
<polygon fill="#aec7e8" stroke="transparent" points="137.5204,-44 80.1593,-44 80.1593,-26 137.5204,-26 137.5204,-44"/>
<text text-anchor="middle" x="108.8398" y="-32" font-family="sans" font-size="10.00" fill="#000000">SYMBOL</text>
</g>
<!-- 2&#45;&gt;6 -->
<g id="edge7" class="edge">
<title>2&#45;&gt;6</title>
<path fill="none" stroke="#c0c0c0" d="M85.4309,-51.9065C87.9857,-50.0613 90.7007,-48.1005 93.3424,-46.1926"/>
<polygon fill="#c0c0c0" stroke="#c0c0c0" points="94.1338,-46.9163 95.9511,-44.3086 92.9042,-45.2139 94.1338,-46.9163"/>
</g>
<!-- 4 -->
<g id="node5" class="node">
<title>4</title>
<polygon fill="#eeeeee" stroke="transparent" points="40.0121,-18 17.6676,-18 17.6676,0 40.0121,0 40.0121,-18"/>
<text text-anchor="middle" x="28.8398" y="-6" font-family="sans" font-size="10.00" fill="#000000">A</text>
</g>
<!-- 3&#45;&gt;4 -->
<g id="edge8" class="edge">
<title>3&#45;&gt;4</title>
<path fill="none" stroke="#c0c0c0" d="M28.8398,-25.9065C28.8398,-24.5226 28.8398,-23.0737 28.8398,-21.6308"/>
<polygon fill="#c0c0c0" stroke="#c0c0c0" points="29.8899,-21.3085 28.8398,-18.3086 27.7899,-21.3086 29.8899,-21.3085"/>
</g>
<!-- 7 -->
<g id="node8" class="node">
<title>7</title>
<polygon fill="#eeeeee" stroke="transparent" points="120.0121,-18 97.6676,-18 97.6676,0 120.0121,0 120.0121,-18"/>
<text text-anchor="middle" x="108.8398" y="-6" font-family="sans" font-size="10.00" fill="#000000">A</text>
</g>
<!-- 6&#45;&gt;7 -->
<g id="edge9" class="edge">
<title>6&#45;&gt;7</title>
<path fill="none" stroke="#c0c0c0" d="M108.8398,-25.9065C108.8398,-24.5226 108.8398,-23.0737 108.8398,-21.6308"/>
<polygon fill="#c0c0c0" stroke="#c0c0c0" points="109.8899,-21.3085 108.8398,-18.3086 107.7899,-21.3086 109.8899,-21.3085"/>
</g>
<!-- 10 -->
<g id="node11" class="node">
<title>10</title>
<polygon fill="#aec7e8" stroke="transparent" points="210.1712,-70 165.5085,-70 165.5085,-52 210.1712,-52 210.1712,-70"/>
<text text-anchor="middle" x="187.8398" y="-58" font-family="sans" font-size="10.00" fill="#000000">TERM</text>
</g>
<!-- 9&#45;&gt;10 -->
<g id="edge10" class="edge">
<title>9&#45;&gt;10</title>
<path fill="none" stroke="#c0c0c0" d="M186.5393,-77.9065C186.6458,-76.5226 186.7573,-75.0737 186.8682,-73.6308"/>
<polygon fill="#c0c0c0" stroke="#c0c0c0" points="187.9405,-73.3803 187.1238,-70.3086 185.8467,-73.2192 187.9405,-73.3803"/>
</g>
<!-- 11 -->
<g id="node12" class="node">
<title>11</title>
<polygon fill="#aec7e8" stroke="transparent" points="196.5204,-44 139.1593,-44 139.1593,-26 196.5204,-26 196.5204,-44"/>
<text text-anchor="middle" x="167.8398" y="-32" font-family="sans" font-size="10.00" fill="#000000">SYMBOL</text>
</g>
<!-- 10&#45;&gt;11 -->
<g id="edge11" class="edge">
<title>10&#45;&gt;11</title>
<path fill="none" stroke="#c0c0c0" d="M180.8448,-51.9065C179.662,-50.3689 178.4174,-48.7509 177.1861,-47.1502"/>
<polygon fill="#c0c0c0" stroke="#c0c0c0" points="177.6617,-46.0463 175.0003,-44.3086 175.9972,-47.3267 177.6617,-46.0463"/>
</g>
<!-- 13 -->
<g id="node14" class="node">
<title>13</title>
<polygon fill="#eeeeee" stroke="transparent" points="217.7317,-44 197.9479,-44 197.9479,-26 217.7317,-26 217.7317,-44"/>
<text text-anchor="middle" x="207.8398" y="-32" font-family="sans" font-size="10.00" fill="#000000">*</text>
</g>
<!-- 10&#45;&gt;13 -->
<g id="edge12" class="edge">
<title>10&#45;&gt;13</title>
<path fill="none" stroke="#c0c0c0" d="M194.8349,-51.9065C196.0176,-50.3689 197.2622,-48.7509 198.4936,-47.1502"/>
<polygon fill="#c0c0c0" stroke="#c0c0c0" points="199.6825,-47.3267 200.6794,-44.3086 198.018,-46.0463 199.6825,-47.3267"/>
</g>
<!-- 14 -->
<g id="node15" class="node">
<title>14</title>
<polygon fill="#aec7e8" stroke="transparent" points="276.5204,-44 219.1593,-44 219.1593,-26 276.5204,-26 276.5204,-44"/>
<text text-anchor="middle" x="247.8398" y="-32" font-family="sans" font-size="10.00" fill="#000000">SYMBOL</text>
</g>
<!-- 10&#45;&gt;14 -->
<g id="edge13" class="edge">
<title>10&#45;&gt;14</title>
<path fill="none" stroke="#c0c0c0" d="M208.8249,-51.9065C213.7292,-49.7813 218.9878,-47.5025 224.0059,-45.328"/>
<polygon fill="#c0c0c0" stroke="#c0c0c0" points="224.43,-46.2887 226.7652,-44.1324 223.595,-44.3618 224.43,-46.2887"/>
</g>
<!-- 12 -->
<g id="node13" class="node">
<title>12</title>
<polygon fill="#eeeeee" stroke="transparent" points="179.0121,-18 156.6676,-18 156.6676,0 179.0121,0 179.0121,-18"/>
<text text-anchor="middle" x="167.8398" y="-6" font-family="sans" font-size="10.00" fill="#000000">B</text>
</g>
<!-- 11&#45;&gt;12 -->
<g id="edge14" class="edge">
<title>11&#45;&gt;12</title>
<path fill="none" stroke="#c0c0c0" d="M167.8398,-25.9065C167.8398,-24.5226 167.8398,-23.0737 167.8398,-21.6308"/>
<polygon fill="#c0c0c0" stroke="#c0c0c0" points="168.8899,-21.3085 167.8398,-18.3086 166.7899,-21.3086 168.8899,-21.3085"/>
</g>
<!-- 15 -->
<g id="node16" class="node">
<title>15</title>
<polygon fill="#eeeeee" stroke="transparent" points="259.0121,-18 236.6676,-18 236.6676,0 259.0121,0 259.0121,-18"/>
<text text-anchor="middle" x="247.8398" y="-6" font-family="sans" font-size="10.00" fill="#000000">B</text>
</g>
<!-- 14&#45;&gt;15 -->
<g id="edge15" class="edge">
<title>14&#45;&gt;15</title>
<path fill="none" stroke="#c0c0c0" d="M247.8398,-25.9065C247.8398,-24.5226 247.8398,-23.0737 247.8398,-21.6308"/>
<polygon fill="#c0c0c0" stroke="#c0c0c0" points="248.8899,-21.3085 247.8398,-18.3086 246.7899,-21.3086 248.8899,-21.3085"/>
</g>
</g>
</svg>
