<?xml version="1.0" encoding="UTF-8" standalone="no"?>
<!DOCTYPE svg PUBLIC "-//W3C//DTD SVG 1.1//EN"
 "http://www.w3.org/Graphics/SVG/1.1/DTD/svg11.dtd">
<!-- Generated by graphviz version 2.40.1 (20161225.0304)
 -->
<!-- Title: G Pages: 1 -->
<svg width="143pt" height="52pt"
 viewBox="0.00 0.00 142.68 52.00" xmlns="http://www.w3.org/2000/svg" xmlns:xlink="http://www.w3.org/1999/xlink">
<g id="graph0" class="graph" transform="scale(1 1) rotate(0) translate(4 48)">
<title>G</title>
<polygon fill="#ffffff" stroke="transparent" points="-4,4 -4,-48 138.6846,-48 138.6846,4 -4,4"/>
<!-- 0 -->
<g id="node1" class="node">
<title>0</title>
<polygon fill="#aec7e8" stroke="transparent" points="94.0557,-44 52.1904,-44 52.1904,-26 94.0557,-26 94.0557,-44"/>
<text text-anchor="middle" x="73.123" y="-32" font-family="sans" font-size="10.00" fill="#000000">DATE</text>
</g>
<!-- 1 -->
<g id="node2" class="node">
<title>1</title>
<polygon fill="#eeeeee" stroke="transparent" points="38.3699,-18 -.1238,-18 -.1238,0 38.3699,0 38.3699,-18"/>
<text text-anchor="middle" x="19.123" y="-6" font-family="sans" font-size="10.00" fill="#000000">2016</text>
</g>
<!-- 0&#45;&gt;1 -->
<g id="edge1" class="edge">
<title>0&#45;&gt;1</title>
<path fill="none" stroke="#c0c0c0" d="M54.2365,-25.9065C49.9044,-23.8206 45.265,-21.5869 40.8247,-19.449"/>
<polygon fill="#c0c0c0" stroke="#c0c0c0" points="41.2488,-18.4878 38.0902,-18.1324 40.3377,-20.3799 41.2488,-18.4878"/>
</g>
<!-- 2 -->
<g id="node3" class="node">
<title>2</title>
<polygon fill="#eeeeee" stroke="transparent" points="58.956,-18 39.2901,-18 39.2901,0 58.956,0 58.956,-18"/>
<text text-anchor="middle" x="49.123" y="-6" font-family="sans" font-size="10.00" fill="#000000">&#45;</text>
</g>
<!-- 0&#45;&gt;2 -->
<g id="edge2" class="edge">
<title>0&#45;&gt;2</title>
<path fill="none" stroke="#c0c0c0" d="M64.729,-25.9065C63.1678,-24.2151 61.5167,-22.4265 59.8959,-20.6705"/>
<polygon fill="#c0c0c0" stroke="#c0c0c0" points="60.522,-19.8008 57.7156,-18.3086 58.9789,-21.2252 60.522,-19.8008"/>
</g>
<!-- 3 -->
<g id="node4" class="node">
<title>3</title>
<polygon fill="#eeeeee" stroke="transparent" points="86.7464,-18 59.4997,-18 59.4997,0 86.7464,0 86.7464,-18"/>
<text text-anchor="middle" x="73.123" y="-6" font-family="sans" font-size="10.00" fill="#000000">01</text>
</g>
<!-- 0&#45;&gt;3 -->
<g id="edge3" class="edge">
<title>0&#45;&gt;3</title>
<path fill="none" stroke="#c0c0c0" d="M73.123,-25.9065C73.123,-24.5226 73.123,-23.0737 73.123,-21.6308"/>
<polygon fill="#c0c0c0" stroke="#c0c0c0" points="74.1731,-21.3085 73.123,-18.3086 72.0731,-21.3086 74.1731,-21.3085"/>
</g>
<!-- 4 -->
<g id="node5" class="node">
<title>4</title>
<polygon fill="#eeeeee" stroke="transparent" points="106.956,-18 87.2901,-18 87.2901,0 106.956,0 106.956,-18"/>
<text text-anchor="middle" x="97.123" y="-6" font-family="sans" font-size="10.00" fill="#000000">&#45;</text>
</g>
<!-- 0&#45;&gt;4 -->
<g id="edge4" class="edge">
<title>0&#45;&gt;4</title>
<path fill="none" stroke="#c0c0c0" d="M81.5171,-25.9065C83.0783,-24.2151 84.7294,-22.4265 86.3502,-20.6705"/>
<polygon fill="#c0c0c0" stroke="#c0c0c0" points="87.2672,-21.2252 88.5305,-18.3086 85.7241,-19.8008 87.2672,-21.2252"/>
</g>
<!-- 5 -->
<g id="node6" class="node">
<title>5</title>
<polygon fill="#eeeeee" stroke="transparent" points="134.7464,-18 107.4997,-18 107.4997,0 134.7464,0 134.7464,-18"/>
<text text-anchor="middle" x="121.123" y="-6" font-family="sans" font-size="10.00" fill="#000000">02</text>
</g>
<!-- 0&#45;&gt;5 -->
<g id="edge5" class="edge">
<title>0&#45;&gt;5</title>
<path fill="none" stroke="#c0c0c0" d="M89.9111,-25.9065C94.6574,-23.3356 99.8186,-20.5399 104.552,-17.976"/>
<polygon fill="#c0c0c0" stroke="#c0c0c0" points="105.2986,-18.7657 107.4364,-16.4136 104.2984,-16.9192 105.2986,-18.7657"/>
</g>
</g>
</svg>
