<?xml version="1.0" encoding="UTF-8" standalone="no"?>
<!DOCTYPE svg PUBLIC "-//W3C//DTD SVG 1.1//EN"
 "http://www.w3.org/Graphics/SVG/1.1/DTD/svg11.dtd">
<!-- Generated by graphviz version 2.40.1 (20161225.0304)
 -->
<!-- Title: G Pages: 1 -->
<svg width="108pt" height="78pt"
 viewBox="0.00 0.00 108.07 78.00" xmlns="http://www.w3.org/2000/svg" xmlns:xlink="http://www.w3.org/1999/xlink">
<g id="graph0" class="graph" transform="scale(1 1) rotate(0) translate(4 74)">
<title>G</title>
<polygon fill="#ffffff" stroke="transparent" points="-4,4 -4,-74 104.0664,-74 104.0664,4 -4,4"/>
<!-- 0 -->
<g id="node1" class="node">
<title>0</title>
<polygon fill="#dbdb8d" stroke="transparent" points="89.3005,-70 52.054,-70 52.054,-52 89.3005,-52 89.3005,-70"/>
<text text-anchor="middle" x="70.6772" y="-58" font-family="sans" font-size="10.00" fill="#000000">Date</text>
</g>
<!-- 1 -->
<g id="node2" class="node">
<title>1</title>
<polygon fill="#dbdb8d" stroke="transparent" points="59.5328,-44 -.1783,-44 -.1783,-26 59.5328,-26 59.5328,-44"/>
<text text-anchor="middle" x="29.6772" y="-32" font-family="sans" font-size="10.00" fill="#000000">Date.year</text>
</g>
<!-- 0&#45;&gt;1 -->
<g id="edge1" class="edge">
<title>0&#45;&gt;1</title>
<path fill="none" stroke="#c0c0c0" d="M56.3374,-51.9065C53.2344,-49.9387 49.9238,-47.8393 46.7283,-45.8129"/>
<polygon fill="#c0c0c0" stroke="#c0c0c0" points="47.1741,-44.8523 44.0783,-44.1324 46.0495,-46.6258 47.1741,-44.8523"/>
</g>
<!-- 3 -->
<g id="node4" class="node">
<title>3</title>
<polygon fill="#eeeeee" stroke="transparent" points="80.7056,-44 60.6489,-44 60.6489,-26 80.7056,-26 80.7056,-44"/>
<text text-anchor="middle" x="70.6772" y="-32" font-family="sans" font-size="10.00" fill="#000000">Ğ³</text>
</g>
<!-- 0&#45;&gt;3 -->
<g id="edge2" class="edge">
<title>0&#45;&gt;3</title>
<path fill="none" stroke="#c0c0c0" d="M70.6772,-51.9065C70.6772,-50.5226 70.6772,-49.0737 70.6772,-47.6308"/>
<polygon fill="#c0c0c0" stroke="#c0c0c0" points="71.7273,-47.3085 70.6772,-44.3086 69.6273,-47.3086 71.7273,-47.3085"/>
</g>
<!-- 4 -->
<g id="node5" class="node">
<title>4</title>
<polygon fill="#eeeeee" stroke="transparent" points="99.9569,-44 81.3976,-44 81.3976,-26 99.9569,-26 99.9569,-44"/>
<text text-anchor="middle" x="90.6772" y="-32" font-family="sans" font-size="10.00" fill="#000000">.</text>
</g>
<!-- 0&#45;&gt;4 -->
<g id="edge3" class="edge">
<title>0&#45;&gt;4</title>
<path fill="none" stroke="#c0c0c0" d="M77.6723,-51.9065C78.855,-50.3689 80.0996,-48.7509 81.331,-47.1502"/>
<polygon fill="#c0c0c0" stroke="#c0c0c0" points="82.5199,-47.3267 83.5168,-44.3086 80.8554,-46.0463 82.5199,-47.3267"/>
</g>
<!-- 2 -->
<g id="node3" class="node">
<title>2</title>
<polygon fill="#eeeeee" stroke="transparent" points="48.9241,-18 10.4304,-18 10.4304,0 48.9241,0 48.9241,-18"/>
<text text-anchor="middle" x="29.6772" y="-6" font-family="sans" font-size="10.00" fill="#000000">2015</text>
</g>
<!-- 1&#45;&gt;2 -->
<g id="edge4" class="edge">
<title>1&#45;&gt;2</title>
<path fill="none" stroke="#c0c0c0" d="M29.6772,-25.9065C29.6772,-24.5226 29.6772,-23.0737 29.6772,-21.6308"/>
<polygon fill="#c0c0c0" stroke="#c0c0c0" points="30.7273,-21.3085 29.6772,-18.3086 28.6273,-21.3086 30.7273,-21.3085"/>
</g>
</g>
</svg>
