<?xml version="1.0" encoding="UTF-8" standalone="no"?>
<!DOCTYPE svg PUBLIC "-//W3C//DTD SVG 1.1//EN"
 "http://www.w3.org/Graphics/SVG/1.1/DTD/svg11.dtd">
<!-- Generated by graphviz version 2.40.1 (20161225.0304)
 -->
<!-- Title: 4357700632 Pages: 1 -->
<svg width="235pt" height="78pt"
 viewBox="0.00 0.00 234.69 78.00" xmlns="http://www.w3.org/2000/svg" xmlns:xlink="http://www.w3.org/1999/xlink">
<g id="graph0" class="graph" transform="scale(1 1) rotate(0) translate(4 74)">
<title>4357700632</title>
<polygon fill="#ffffff" stroke="transparent" points="-4,4 -4,-74 230.6895,-74 230.6895,4 -4,4"/>
<!-- 4357633976 -->
<g id="node1" class="node">
<title>4357633976</title>
<polygon fill="#dbdb8d" stroke="transparent" points="133.3005,-70 96.054,-70 96.054,-52 133.3005,-52 133.3005,-70"/>
<text text-anchor="middle" x="114.6772" y="-58" font-family="sans" font-size="10.00" fill="#000000">Date</text>
</g>
<!-- 4357635936 -->
<g id="node2" class="node">
<title>4357635936</title>
<polygon fill="#dbdb8d" stroke="transparent" points="59.5328,-44 -.1783,-44 -.1783,-26 59.5328,-26 59.5328,-44"/>
<text text-anchor="middle" x="29.6772" y="-32" font-family="sans" font-size="10.00" fill="#000000">Date.year</text>
</g>
<!-- 4357633976&#45;&gt;4357635936 -->
<g id="edge1" class="edge">
<title>4357633976&#45;&gt;4357635936</title>
<path fill="none" stroke="#c0c0c0" d="M95.813,-55.2298C85.8935,-52.1956 73.4553,-48.3909 62.0502,-44.9023"/>
<polygon fill="#c0c0c0" stroke="#c0c0c0" points="62.351,-43.8964 59.175,-44.0228 61.7367,-45.9045 62.351,-43.8964"/>
</g>
<!-- 4357635712 -->
<g id="node4" class="node">
<title>4357635712</title>
<polygon fill="#eeeeee" stroke="transparent" points="79.5102,-44 59.8443,-44 59.8443,-26 79.5102,-26 79.5102,-44"/>
<text text-anchor="middle" x="69.6772" y="-32" font-family="sans" font-size="10.00" fill="#000000">&#45;</text>
</g>
<!-- 4357633976&#45;&gt;4357635712 -->
<g id="edge2" class="edge">
<title>4357633976&#45;&gt;4357635712</title>
<path fill="none" stroke="#c0c0c0" d="M97.5014,-51.8586C92.9699,-49.3714 88.1089,-46.6353 83.6772,-44 83.1557,-43.6899 82.6255,-43.3701 82.0916,-43.0442"/>
<polygon fill="#c0c0c0" stroke="#c0c0c0" points="82.5166,-42.0722 79.414,-41.3821 81.4091,-43.8564 82.5166,-42.0722"/>
</g>
<!-- 4357634200 -->
<g id="node5" class="node">
<title>4357634200</title>
<polygon fill="#dbdb8d" stroke="transparent" points="148.3723,-44 80.9822,-44 80.9822,-26 148.3723,-26 148.3723,-44"/>
<text text-anchor="middle" x="114.6772" y="-32" font-family="sans" font-size="10.00" fill="#000000">Date.month</text>
</g>
<!-- 4357633976&#45;&gt;4357634200 -->
<g id="edge3" class="edge">
<title>4357633976&#45;&gt;4357634200</title>
<path fill="none" stroke="#c0c0c0" d="M114.6772,-51.9065C114.6772,-50.5226 114.6772,-49.0737 114.6772,-47.6308"/>
<polygon fill="#c0c0c0" stroke="#c0c0c0" points="115.7273,-47.3085 114.6772,-44.3086 113.6273,-47.3086 115.7273,-47.3085"/>
</g>
<!-- 4357632128 -->
<g id="node7" class="node">
<title>4357632128</title>
<polygon fill="#eeeeee" stroke="transparent" points="169.5102,-44 149.8443,-44 149.8443,-26 169.5102,-26 169.5102,-44"/>
<text text-anchor="middle" x="159.6772" y="-32" font-family="sans" font-size="10.00" fill="#000000">&#45;</text>
</g>
<!-- 4357633976&#45;&gt;4357632128 -->
<g id="edge4" class="edge">
<title>4357633976&#45;&gt;4357632128</title>
<path fill="none" stroke="#c0c0c0" d="M131.8531,-51.8586C136.3846,-49.3714 141.2456,-46.6353 145.6772,-44 146.1988,-43.6899 146.729,-43.3701 147.2629,-43.0442"/>
<polygon fill="#c0c0c0" stroke="#c0c0c0" points="147.9454,-43.8564 149.9405,-41.3821 146.8379,-42.0722 147.9454,-43.8564"/>
</g>
<!-- 4357632744 -->
<g id="node8" class="node">
<title>4357632744</title>
<polygon fill="#dbdb8d" stroke="transparent" points="226.7017,-44 170.6528,-44 170.6528,-26 226.7017,-26 226.7017,-44"/>
<text text-anchor="middle" x="198.6772" y="-32" font-family="sans" font-size="10.00" fill="#000000">Date.day</text>
</g>
<!-- 4357633976&#45;&gt;4357632744 -->
<g id="edge5" class="edge">
<title>4357633976&#45;&gt;4357632744</title>
<path fill="none" stroke="#c0c0c0" d="M133.3196,-55.2298C143.3897,-52.1128 156.0866,-48.1828 167.605,-44.6176"/>
<polygon fill="#c0c0c0" stroke="#c0c0c0" points="167.9503,-45.6099 170.5057,-43.7198 167.3293,-43.6038 167.9503,-45.6099"/>
</g>
<!-- 4357634760 -->
<g id="node3" class="node">
<title>4357634760</title>
<polygon fill="#eeeeee" stroke="transparent" points="48.9241,-18 10.4304,-18 10.4304,0 48.9241,0 48.9241,-18"/>
<text text-anchor="middle" x="29.6772" y="-6" font-family="sans" font-size="10.00" fill="#000000">2016</text>
</g>
<!-- 4357635936&#45;&gt;4357634760 -->
<g id="edge6" class="edge">
<title>4357635936&#45;&gt;4357634760</title>
<path fill="none" stroke="#c0c0c0" d="M29.6772,-25.9065C29.6772,-24.5226 29.6772,-23.0737 29.6772,-21.6308"/>
<polygon fill="#c0c0c0" stroke="#c0c0c0" points="30.7273,-21.3085 29.6772,-18.3086 28.6273,-21.3086 30.7273,-21.3085"/>
</g>
<!-- 4357632632 -->
<g id="node6" class="node">
<title>4357632632</title>
<polygon fill="#eeeeee" stroke="transparent" points="125.2431,-18 104.1114,-18 104.1114,0 125.2431,0 125.2431,-18"/>
<text text-anchor="middle" x="114.6772" y="-6" font-family="sans" font-size="10.00" fill="#000000">1</text>
</g>
<!-- 4357634200&#45;&gt;4357632632 -->
<g id="edge7" class="edge">
<title>4357634200&#45;&gt;4357632632</title>
<path fill="none" stroke="#c0c0c0" d="M114.6772,-25.9065C114.6772,-24.5226 114.6772,-23.0737 114.6772,-21.6308"/>
<polygon fill="#c0c0c0" stroke="#c0c0c0" points="115.7273,-21.3085 114.6772,-18.3086 113.6273,-21.3086 115.7273,-21.3085"/>
</g>
<!-- 4357632576 -->
<g id="node9" class="node">
<title>4357632576</title>
<polygon fill="#eeeeee" stroke="transparent" points="209.2431,-18 188.1114,-18 188.1114,0 209.2431,0 209.2431,-18"/>
<text text-anchor="middle" x="198.6772" y="-6" font-family="sans" font-size="10.00" fill="#000000">2</text>
</g>
<!-- 4357632744&#45;&gt;4357632576 -->
<g id="edge8" class="edge">
<title>4357632744&#45;&gt;4357632576</title>
<path fill="none" stroke="#c0c0c0" d="M198.6772,-25.9065C198.6772,-24.5226 198.6772,-23.0737 198.6772,-21.6308"/>
<polygon fill="#c0c0c0" stroke="#c0c0c0" points="199.7273,-21.3085 198.6772,-18.3086 197.6273,-21.3086 199.7273,-21.3085"/>
</g>
</g>
</svg>
