<?xml version="1.0" encoding="UTF-8" standalone="no"?>
<!DOCTYPE svg PUBLIC "-//W3C//DTD SVG 1.1//EN"
 "http://www.w3.org/Graphics/SVG/1.1/DTD/svg11.dtd">
<!-- Generated by graphviz version 2.40.1 (20161225.0304)
 -->
<!-- Title: 4357430520 Pages: 1 -->
<svg width="117pt" height="52pt"
 viewBox="0.00 0.00 116.68 52.00" xmlns="http://www.w3.org/2000/svg" xmlns:xlink="http://www.w3.org/1999/xlink">
<g id="graph0" class="graph" transform="scale(1 1) rotate(0) translate(4 48)">
<title>4357430520</title>
<polygon fill="#ffffff" stroke="transparent" points="-4,4 -4,-48 112.6846,-48 112.6846,4 -4,4"/>
<!-- 4357632968 -->
<g id="node1" class="node">
<title>4357632968</title>
<polygon fill="#aec7e8" stroke="transparent" points="69.4942,-44 27.6289,-44 27.6289,-26 69.4942,-26 69.4942,-44"/>
<text text-anchor="middle" x="48.5615" y="-32" font-family="sans" font-size="10.00" fill="#000000">DATE</text>
</g>
<!-- 4357633024 -->
<g id="node2" class="node">
<title>4357633024</title>
<polygon fill="#eeeeee" stroke="transparent" points="27.1849,-18 -.0618,-18 -.0618,0 27.1849,0 27.1849,-18"/>
<text text-anchor="middle" x="13.5615" y="-6" font-family="sans" font-size="10.00" fill="#000000">18</text>
</g>
<!-- 4357632968&#45;&gt;4357633024 -->
<g id="edge1" class="edge">
<title>4357632968&#45;&gt;4357633024</title>
<path fill="none" stroke="#c0c0c0" d="M36.3202,-25.9065C33.8364,-24.0613 31.1968,-22.1005 28.6284,-20.1926"/>
<polygon fill="#c0c0c0" stroke="#c0c0c0" points="29.1267,-19.2547 26.0923,-18.3086 27.8744,-20.9405 29.1267,-19.2547"/>
</g>
<!-- 4357633080 -->
<g id="node3" class="node">
<title>4357633080</title>
<polygon fill="#eeeeee" stroke="transparent" points="68.9981,-18 28.125,-18 28.125,0 68.9981,0 68.9981,-18"/>
<text text-anchor="middle" x="48.5615" y="-6" font-family="sans" font-size="10.00" fill="#000000">июля</text>
</g>
<!-- 4357632968&#45;&gt;4357633080 -->
<g id="edge2" class="edge">
<title>4357632968&#45;&gt;4357633080</title>
<path fill="none" stroke="#c0c0c0" d="M48.5615,-25.9065C48.5615,-24.5226 48.5615,-23.0737 48.5615,-21.6308"/>
<polygon fill="#c0c0c0" stroke="#c0c0c0" points="49.6116,-21.3085 48.5615,-18.3086 47.5116,-21.3086 49.6116,-21.3085"/>
</g>
<!-- 4357633136 -->
<g id="node4" class="node">
<title>4357633136</title>
<polygon fill="#eeeeee" stroke="transparent" points="108.8084,-18 70.3146,-18 70.3146,0 108.8084,0 108.8084,-18"/>
<text text-anchor="middle" x="89.5615" y="-6" font-family="sans" font-size="10.00" fill="#000000">2016</text>
</g>
<!-- 4357632968&#45;&gt;4357633136 -->
<g id="edge3" class="edge">
<title>4357632968&#45;&gt;4357633136</title>
<path fill="none" stroke="#c0c0c0" d="M62.9013,-25.9065C66.0044,-23.9387 69.315,-21.8393 72.5105,-19.8129"/>
<polygon fill="#c0c0c0" stroke="#c0c0c0" points="73.1893,-20.6258 75.1605,-18.1324 72.0646,-18.8523 73.1893,-20.6258"/>
</g>
</g>
</svg>
