<?xml version="1.0" encoding="UTF-8" standalone="no"?>
<!DOCTYPE svg PUBLIC "-//W3C//DTD SVG 1.1//EN"
 "http://www.w3.org/Graphics/SVG/1.1/DTD/svg11.dtd">
<!-- Generated by graphviz version 2.40.1 (20161225.0304)
 -->
<!-- Title: 4357632968 Pages: 1 -->
<svg width="131pt" height="52pt"
 viewBox="0.00 0.00 130.90 52.00" xmlns="http://www.w3.org/2000/svg" xmlns:xlink="http://www.w3.org/1999/xlink">
<g id="graph0" class="graph" transform="scale(1 1) rotate(0) translate(4 48)">
<title>4357632968</title>
<polygon fill="#ffffff" stroke="transparent" points="-4,4 -4,-48 126.9038,-48 126.9038,4 -4,4"/>
<!-- 4357628704 -->
<g id="node1" class="node">
<title>4357628704</title>
<polygon fill="#aec7e8" stroke="transparent" points="91.0557,-44 49.1904,-44 49.1904,-26 91.0557,-26 91.0557,-44"/>
<text text-anchor="middle" x="70.123" y="-32" font-family="sans" font-size="10.00" fill="#000000">DATE</text>
</g>
<!-- 4357628760 -->
<g id="node2" class="node">
<title>4357628760</title>
<polygon fill="#eeeeee" stroke="transparent" points="38.3699,-18 -.1238,-18 -.1238,0 38.3699,0 38.3699,-18"/>
<text text-anchor="middle" x="19.123" y="-6" font-family="sans" font-size="10.00" fill="#000000">2016</text>
</g>
<!-- 4357628704&#45;&gt;4357628760 -->
<g id="edge1" class="edge">
<title>4357628704&#45;&gt;4357628760</title>
<path fill="none" stroke="#c0c0c0" d="M52.2857,-25.9065C48.2715,-23.86 43.9779,-21.6711 39.8566,-19.5701"/>
<polygon fill="#c0c0c0" stroke="#c0c0c0" points="40.1862,-18.5595 37.0365,-18.1324 39.2323,-20.4304 40.1862,-18.5595"/>
</g>
<!-- 4357628816 -->
<g id="node3" class="node">
<title>4357628816</title>
<polygon fill="#eeeeee" stroke="transparent" points="58.956,-18 39.2901,-18 39.2901,0 58.956,0 58.956,-18"/>
<text text-anchor="middle" x="49.123" y="-6" font-family="sans" font-size="10.00" fill="#000000">&#45;</text>
</g>
<!-- 4357628704&#45;&gt;4357628816 -->
<g id="edge2" class="edge">
<title>4357628704&#45;&gt;4357628816</title>
<path fill="none" stroke="#c0c0c0" d="M62.7783,-25.9065C61.4122,-24.2151 59.9675,-22.4265 58.5493,-20.6705"/>
<polygon fill="#c0c0c0" stroke="#c0c0c0" points="59.3434,-19.9827 56.6415,-18.3086 57.7097,-21.3022 59.3434,-19.9827"/>
</g>
<!-- 4357628872 -->
<g id="node4" class="node">
<title>4357628872</title>
<polygon fill="#eeeeee" stroke="transparent" points="80.6889,-18 59.5572,-18 59.5572,0 80.6889,0 80.6889,-18"/>
<text text-anchor="middle" x="70.123" y="-6" font-family="sans" font-size="10.00" fill="#000000">1</text>
</g>
<!-- 4357628704&#45;&gt;4357628872 -->
<g id="edge3" class="edge">
<title>4357628704&#45;&gt;4357628872</title>
<path fill="none" stroke="#c0c0c0" d="M70.123,-25.9065C70.123,-24.5226 70.123,-23.0737 70.123,-21.6308"/>
<polygon fill="#c0c0c0" stroke="#c0c0c0" points="71.1731,-21.3085 70.123,-18.3086 69.0731,-21.3086 71.1731,-21.3085"/>
</g>
<!-- 4357628928 -->
<g id="node5" class="node">
<title>4357628928</title>
<polygon fill="#eeeeee" stroke="transparent" points="100.956,-18 81.2901,-18 81.2901,0 100.956,0 100.956,-18"/>
<text text-anchor="middle" x="91.123" y="-6" font-family="sans" font-size="10.00" fill="#000000">&#45;</text>
</g>
<!-- 4357628704&#45;&gt;4357628928 -->
<g id="edge4" class="edge">
<title>4357628704&#45;&gt;4357628928</title>
<path fill="none" stroke="#c0c0c0" d="M77.4678,-25.9065C78.8339,-24.2151 80.2786,-22.4265 81.6968,-20.6705"/>
<polygon fill="#c0c0c0" stroke="#c0c0c0" points="82.5364,-21.3022 83.6046,-18.3086 80.9027,-19.9827 82.5364,-21.3022"/>
</g>
<!-- 4357628984 -->
<g id="node6" class="node">
<title>4357628984</title>
<polygon fill="#eeeeee" stroke="transparent" points="122.6889,-18 101.5572,-18 101.5572,0 122.6889,0 122.6889,-18"/>
<text text-anchor="middle" x="112.123" y="-6" font-family="sans" font-size="10.00" fill="#000000">2</text>
</g>
<!-- 4357628704&#45;&gt;4357628984 -->
<g id="edge5" class="edge">
<title>4357628704&#45;&gt;4357628984</title>
<path fill="none" stroke="#c0c0c0" d="M84.8126,-25.9065C89.3574,-23.093 94.3369,-20.0105 98.785,-17.2569"/>
<polygon fill="#c0c0c0" stroke="#c0c0c0" points="99.479,-18.0622 101.4772,-15.5903 98.3737,-16.2766 99.479,-18.0622"/>
</g>
</g>
</svg>
