<?xml version="1.0" encoding="UTF-8" standalone="no"?>
<!DOCTYPE svg PUBLIC "-//W3C//DTD SVG 1.1//EN"
 "http://www.w3.org/Graphics/SVG/1.1/DTD/svg11.dtd">
<!-- Generated by graphviz version 2.40.1 (20161225.0304)
 -->
<!-- Title: 4357532080 Pages: 1 -->
<svg width="203pt" height="130pt"
 viewBox="0.00 0.00 203.33 130.00" xmlns="http://www.w3.org/2000/svg" xmlns:xlink="http://www.w3.org/1999/xlink">
<g id="graph0" class="graph" transform="scale(1 1) rotate(0) translate(4 126)">
<title>4357532080</title>
<polygon fill="#ffffff" stroke="transparent" points="-4,4 -4,-126 199.3301,-126 199.3301,4 -4,4"/>
<!-- 4357532808 -->
<g id="node1" class="node">
<title>4357532808</title>
<polygon fill="#aec7e8" stroke="transparent" points="97.3971,-122 53.933,-122 53.933,-104 97.3971,-104 97.3971,-122"/>
<text text-anchor="middle" x="75.665" y="-110" font-family="sans" font-size="10.00" fill="#000000">EXPR</text>
</g>
<!-- 4357583704 -->
<g id="node2" class="node">
<title>4357583704</title>
<polygon fill="#eeeeee" stroke="transparent" points="19.498,-96 -.1679,-96 -.1679,-78 19.498,-78 19.498,-96"/>
<text text-anchor="middle" x="9.665" y="-84" font-family="sans" font-size="10.00" fill="#000000">(</text>
</g>
<!-- 4357532808&#45;&gt;4357583704 -->
<g id="edge1" class="edge">
<title>4357532808&#45;&gt;4357583704</title>
<path fill="none" stroke="#c0c0c0" d="M53.9354,-107.2488C44.427,-104.3908 33.2729,-100.5662 23.665,-96 23.241,-95.7985 22.8143,-95.5862 22.3871,-95.3655"/>
<polygon fill="#c0c0c0" stroke="#c0c0c0" points="22.7142,-94.3462 19.5816,-93.8082 21.695,-96.1823 22.7142,-94.3462"/>
</g>
<!-- 4357583760 -->
<g id="node3" class="node">
<title>4357583760</title>
<polygon fill="#aec7e8" stroke="transparent" points="63.3971,-96 19.933,-96 19.933,-78 63.3971,-78 63.3971,-96"/>
<text text-anchor="middle" x="41.665" y="-84" font-family="sans" font-size="10.00" fill="#000000">EXPR</text>
</g>
<!-- 4357532808&#45;&gt;4357583760 -->
<g id="edge2" class="edge">
<title>4357532808&#45;&gt;4357583760</title>
<path fill="none" stroke="#c0c0c0" d="M63.7735,-103.9065C61.3606,-102.0613 58.7964,-100.1005 56.3015,-98.1926"/>
<polygon fill="#c0c0c0" stroke="#c0c0c0" points="56.8587,-97.2969 53.8378,-96.3086 55.583,-98.965 56.8587,-97.2969"/>
</g>
<!-- 4357584712 -->
<g id="node5" class="node">
<title>4357584712</title>
<polygon fill="#eeeeee" stroke="transparent" points="86.5055,-96 64.8246,-96 64.8246,-78 86.5055,-78 86.5055,-96"/>
<text text-anchor="middle" x="75.665" y="-84" font-family="sans" font-size="10.00" fill="#000000">+</text>
</g>
<!-- 4357532808&#45;&gt;4357584712 -->
<g id="edge3" class="edge">
<title>4357532808&#45;&gt;4357584712</title>
<path fill="none" stroke="#c0c0c0" d="M75.665,-103.9065C75.665,-102.5226 75.665,-101.0737 75.665,-99.6308"/>
<polygon fill="#c0c0c0" stroke="#c0c0c0" points="76.7151,-99.3085 75.665,-96.3086 74.6151,-99.3086 76.7151,-99.3085"/>
</g>
<!-- 4357584768 -->
<g id="node6" class="node">
<title>4357584768</title>
<polygon fill="#aec7e8" stroke="transparent" points="131.3971,-96 87.933,-96 87.933,-78 131.3971,-78 131.3971,-96"/>
<text text-anchor="middle" x="109.665" y="-84" font-family="sans" font-size="10.00" fill="#000000">EXPR</text>
</g>
<!-- 4357532808&#45;&gt;4357584768 -->
<g id="edge4" class="edge">
<title>4357532808&#45;&gt;4357584768</title>
<path fill="none" stroke="#c0c0c0" d="M87.5566,-103.9065C89.9694,-102.0613 92.5337,-100.1005 95.0286,-98.1926"/>
<polygon fill="#c0c0c0" stroke="#c0c0c0" points="95.747,-98.965 97.4923,-96.3086 94.4714,-97.2969 95.747,-98.965"/>
</g>
<!-- 4357585552 -->
<g id="node20" class="node">
<title>4357585552</title>
<polygon fill="#eeeeee" stroke="transparent" points="151.498,-96 131.8321,-96 131.8321,-78 151.498,-78 151.498,-96"/>
<text text-anchor="middle" x="141.665" y="-84" font-family="sans" font-size="10.00" fill="#000000">)</text>
</g>
<!-- 4357532808&#45;&gt;4357585552 -->
<g id="edge5" class="edge">
<title>4357532808&#45;&gt;4357585552</title>
<path fill="none" stroke="#c0c0c0" d="M97.3947,-107.2488C106.903,-104.3908 118.0572,-100.5662 127.665,-96 128.0891,-95.7985 128.5158,-95.5862 128.943,-95.3655"/>
<polygon fill="#c0c0c0" stroke="#c0c0c0" points="129.6351,-96.1823 131.7485,-93.8082 128.6159,-94.3462 129.6351,-96.1823"/>
</g>
<!-- 4357584656 -->
<g id="node4" class="node">
<title>4357584656</title>
<polygon fill="#eeeeee" stroke="transparent" points="43.2309,-70 22.0991,-70 22.0991,-52 43.2309,-52 43.2309,-70"/>
<text text-anchor="middle" x="32.665" y="-58" font-family="sans" font-size="10.00" fill="#000000">a</text>
</g>
<!-- 4357583760&#45;&gt;4357584656 -->
<g id="edge6" class="edge">
<title>4357583760&#45;&gt;4357584656</title>
<path fill="none" stroke="#c0c0c0" d="M38.5173,-77.9065C37.985,-76.3689 37.425,-74.7509 36.8709,-73.1502"/>
<polygon fill="#c0c0c0" stroke="#c0c0c0" points="37.8609,-72.8 35.8872,-70.3086 35.8764,-73.487 37.8609,-72.8"/>
</g>
<!-- 4357584824 -->
<g id="node7" class="node">
<title>4357584824</title>
<polygon fill="#eeeeee" stroke="transparent" points="63.498,-70 43.8321,-70 43.8321,-52 63.498,-52 63.498,-70"/>
<text text-anchor="middle" x="53.665" y="-58" font-family="sans" font-size="10.00" fill="#000000">(</text>
</g>
<!-- 4357584768&#45;&gt;4357584824 -->
<g id="edge7" class="edge">
<title>4357584768&#45;&gt;4357584824</title>
<path fill="none" stroke="#c0c0c0" d="M87.9509,-79.1071C81.3226,-76.4607 74.091,-73.3289 67.665,-70 67.2481,-69.784 66.8277,-69.5592 66.406,-69.3275"/>
<polygon fill="#c0c0c0" stroke="#c0c0c0" points="66.748,-68.3125 63.6252,-67.7202 65.6971,-70.1306 66.748,-68.3125"/>
</g>
<!-- 4357584880 -->
<g id="node8" class="node">
<title>4357584880</title>
<polygon fill="#aec7e8" stroke="transparent" points="107.3971,-70 63.933,-70 63.933,-52 107.3971,-52 107.3971,-70"/>
<text text-anchor="middle" x="85.665" y="-58" font-family="sans" font-size="10.00" fill="#000000">EXPR</text>
</g>
<!-- 4357584768&#45;&gt;4357584880 -->
<g id="edge8" class="edge">
<title>4357584768&#45;&gt;4357584880</title>
<path fill="none" stroke="#c0c0c0" d="M101.271,-77.9065C99.7097,-76.2151 98.0587,-74.4265 96.4379,-72.6705"/>
<polygon fill="#c0c0c0" stroke="#c0c0c0" points="97.064,-71.8008 94.2576,-70.3086 95.5209,-73.2252 97.064,-71.8008"/>
</g>
<!-- 4357585328 -->
<g id="node16" class="node">
<title>4357585328</title>
<polygon fill="#eeeeee" stroke="transparent" points="130.5055,-70 108.8246,-70 108.8246,-52 130.5055,-52 130.5055,-70"/>
<text text-anchor="middle" x="119.665" y="-58" font-family="sans" font-size="10.00" fill="#000000">+</text>
</g>
<!-- 4357584768&#45;&gt;4357585328 -->
<g id="edge9" class="edge">
<title>4357584768&#45;&gt;4357585328</title>
<path fill="none" stroke="#c0c0c0" d="M113.1626,-77.9065C113.7539,-76.3689 114.3762,-74.7509 114.9919,-73.1502"/>
<polygon fill="#c0c0c0" stroke="#c0c0c0" points="115.9878,-73.4856 116.0848,-70.3086 114.0278,-72.7317 115.9878,-73.4856"/>
</g>
<!-- 4357585384 -->
<g id="node17" class="node">
<title>4357585384</title>
<polygon fill="#aec7e8" stroke="transparent" points="175.3971,-70 131.933,-70 131.933,-52 175.3971,-52 175.3971,-70"/>
<text text-anchor="middle" x="153.665" y="-58" font-family="sans" font-size="10.00" fill="#000000">EXPR</text>
</g>
<!-- 4357584768&#45;&gt;4357585384 -->
<g id="edge10" class="edge">
<title>4357584768&#45;&gt;4357585384</title>
<path fill="none" stroke="#c0c0c0" d="M125.0541,-77.9065C128.3842,-75.9387 131.937,-73.8393 135.3663,-71.8129"/>
<polygon fill="#c0c0c0" stroke="#c0c0c0" points="136.1617,-72.5626 138.2103,-70.1324 135.0933,-70.7546 136.1617,-72.5626"/>
</g>
<!-- 4357585496 -->
<g id="node19" class="node">
<title>4357585496</title>
<polygon fill="#eeeeee" stroke="transparent" points="195.498,-70 175.8321,-70 175.8321,-52 195.498,-52 195.498,-70"/>
<text text-anchor="middle" x="185.665" y="-58" font-family="sans" font-size="10.00" fill="#000000">)</text>
</g>
<!-- 4357584768&#45;&gt;4357585496 -->
<g id="edge11" class="edge">
<title>4357584768&#45;&gt;4357585496</title>
<path fill="none" stroke="#c0c0c0" d="M131.4539,-79.2547C132.8736,-78.813 134.2863,-78.3904 135.665,-78 151.4352,-73.5342 156.5369,-76.3072 171.665,-70 172.0984,-69.8193 172.5332,-69.6253 172.9674,-69.4204"/>
<polygon fill="#c0c0c0" stroke="#c0c0c0" points="173.634,-70.2567 175.8052,-67.9354 172.6603,-68.3961 173.634,-70.2567"/>
</g>
<!-- 4357584936 -->
<g id="node9" class="node">
<title>4357584936</title>
<polygon fill="#eeeeee" stroke="transparent" points="20.498,-44 .8321,-44 .8321,-26 20.498,-26 20.498,-44"/>
<text text-anchor="middle" x="10.665" y="-32" font-family="sans" font-size="10.00" fill="#000000">(</text>
</g>
<!-- 4357584880&#45;&gt;4357584936 -->
<g id="edge12" class="edge">
<title>4357584880&#45;&gt;4357584936</title>
<path fill="none" stroke="#c0c0c0" d="M63.8734,-53.2644C62.4544,-52.8203 61.0426,-52.3946 59.665,-52 44.3252,-47.6059 39.3744,-50.1848 24.665,-44 24.2322,-43.818 23.7979,-43.6229 23.3641,-43.417"/>
<polygon fill="#c0c0c0" stroke="#c0c0c0" points="23.6724,-42.3929 20.5282,-41.9274 22.6959,-44.252 23.6724,-42.3929"/>
</g>
<!-- 4357584992 -->
<g id="node10" class="node">
<title>4357584992</title>
<polygon fill="#aec7e8" stroke="transparent" points="64.3971,-44 20.933,-44 20.933,-26 64.3971,-26 64.3971,-44"/>
<text text-anchor="middle" x="42.665" y="-32" font-family="sans" font-size="10.00" fill="#000000">EXPR</text>
</g>
<!-- 4357584880&#45;&gt;4357584992 -->
<g id="edge13" class="edge">
<title>4357584880&#45;&gt;4357584992</title>
<path fill="none" stroke="#c0c0c0" d="M70.6257,-51.9065C67.3713,-49.9387 63.8992,-47.8393 60.5479,-45.8129"/>
<polygon fill="#c0c0c0" stroke="#c0c0c0" points="60.8791,-44.7861 57.7685,-44.1324 59.7924,-46.5832 60.8791,-44.7861"/>
</g>
<!-- 4357585104 -->
<g id="node12" class="node">
<title>4357585104</title>
<polygon fill="#eeeeee" stroke="transparent" points="87.5055,-44 65.8246,-44 65.8246,-26 87.5055,-26 87.5055,-44"/>
<text text-anchor="middle" x="76.665" y="-32" font-family="sans" font-size="10.00" fill="#000000">+</text>
</g>
<!-- 4357584880&#45;&gt;4357585104 -->
<g id="edge14" class="edge">
<title>4357584880&#45;&gt;4357585104</title>
<path fill="none" stroke="#c0c0c0" d="M82.5173,-51.9065C81.985,-50.3689 81.425,-48.7509 80.8709,-47.1502"/>
<polygon fill="#c0c0c0" stroke="#c0c0c0" points="81.8609,-46.8 79.8872,-44.3086 79.8764,-47.487 81.8609,-46.8"/>
</g>
<!-- 4357585160 -->
<g id="node13" class="node">
<title>4357585160</title>
<polygon fill="#aec7e8" stroke="transparent" points="132.3971,-44 88.933,-44 88.933,-26 132.3971,-26 132.3971,-44"/>
<text text-anchor="middle" x="110.665" y="-32" font-family="sans" font-size="10.00" fill="#000000">EXPR</text>
</g>
<!-- 4357584880&#45;&gt;4357585160 -->
<g id="edge15" class="edge">
<title>4357584880&#45;&gt;4357585160</title>
<path fill="none" stroke="#c0c0c0" d="M94.4088,-51.9065C96.0351,-50.2151 97.755,-48.4265 99.4434,-46.6705"/>
<polygon fill="#c0c0c0" stroke="#c0c0c0" points="100.392,-47.1989 101.7145,-44.3086 98.8783,-45.7433 100.392,-47.1989"/>
</g>
<!-- 4357585272 -->
<g id="node15" class="node">
<title>4357585272</title>
<polygon fill="#eeeeee" stroke="transparent" points="152.498,-44 132.8321,-44 132.8321,-26 152.498,-26 152.498,-44"/>
<text text-anchor="middle" x="142.665" y="-32" font-family="sans" font-size="10.00" fill="#000000">)</text>
</g>
<!-- 4357584880&#45;&gt;4357585272 -->
<g id="edge16" class="edge">
<title>4357584880&#45;&gt;4357585272</title>
<path fill="none" stroke="#c0c0c0" d="M107.4638,-53.3301C114.3698,-50.6505 121.9508,-47.4437 128.665,-44 129.0828,-43.7857 129.504,-43.5624 129.9264,-43.332"/>
<polygon fill="#c0c0c0" stroke="#c0c0c0" points="130.6334,-44.1367 132.7102,-41.7305 129.5861,-42.3164 130.6334,-44.1367"/>
</g>
<!-- 4357585048 -->
<g id="node11" class="node">
<title>4357585048</title>
<polygon fill="#eeeeee" stroke="transparent" points="53.2309,-18 32.0991,-18 32.0991,0 53.2309,0 53.2309,-18"/>
<text text-anchor="middle" x="42.665" y="-6" font-family="sans" font-size="10.00" fill="#000000">a</text>
</g>
<!-- 4357584992&#45;&gt;4357585048 -->
<g id="edge17" class="edge">
<title>4357584992&#45;&gt;4357585048</title>
<path fill="none" stroke="#c0c0c0" d="M42.665,-25.9065C42.665,-24.5226 42.665,-23.0737 42.665,-21.6308"/>
<polygon fill="#c0c0c0" stroke="#c0c0c0" points="43.7151,-21.3085 42.665,-18.3086 41.6151,-21.3086 43.7151,-21.3085"/>
</g>
<!-- 4357585216 -->
<g id="node14" class="node">
<title>4357585216</title>
<polygon fill="#eeeeee" stroke="transparent" points="121.2309,-18 100.0991,-18 100.0991,0 121.2309,0 121.2309,-18"/>
<text text-anchor="middle" x="110.665" y="-6" font-family="sans" font-size="10.00" fill="#000000">a</text>
</g>
<!-- 4357585160&#45;&gt;4357585216 -->
<g id="edge18" class="edge">
<title>4357585160&#45;&gt;4357585216</title>
<path fill="none" stroke="#c0c0c0" d="M110.665,-25.9065C110.665,-24.5226 110.665,-23.0737 110.665,-21.6308"/>
<polygon fill="#c0c0c0" stroke="#c0c0c0" points="111.7151,-21.3085 110.665,-18.3086 109.6151,-21.3086 111.7151,-21.3085"/>
</g>
<!-- 4357585440 -->
<g id="node18" class="node">
<title>4357585440</title>
<polygon fill="#eeeeee" stroke="transparent" points="174.2309,-44 153.0991,-44 153.0991,-26 174.2309,-26 174.2309,-44"/>
<text text-anchor="middle" x="163.665" y="-32" font-family="sans" font-size="10.00" fill="#000000">a</text>
</g>
<!-- 4357585384&#45;&gt;4357585440 -->
<g id="edge19" class="edge">
<title>4357585384&#45;&gt;4357585440</title>
<path fill="none" stroke="#c0c0c0" d="M157.1626,-51.9065C157.7539,-50.3689 158.3762,-48.7509 158.9919,-47.1502"/>
<polygon fill="#c0c0c0" stroke="#c0c0c0" points="159.9878,-47.4856 160.0848,-44.3086 158.0278,-46.7317 159.9878,-47.4856"/>
</g>
</g>
</svg>
