<?xml version="1.0" encoding="UTF-8" standalone="no"?>
<!DOCTYPE svg PUBLIC "-//W3C//DTD SVG 1.1//EN"
 "http://www.w3.org/Graphics/SVG/1.1/DTD/svg11.dtd">
<!-- Generated by graphviz version 2.40.1 (20161225.0304)
 -->
<!-- Title: G Pages: 1 -->
<svg width="98pt" height="156pt"
 viewBox="0.00 0.00 98.45 156.00" xmlns="http://www.w3.org/2000/svg" xmlns:xlink="http://www.w3.org/1999/xlink">
<g id="graph0" class="graph" transform="scale(1 1) rotate(0) translate(4 152)">
<title>G</title>
<polygon fill="#ffffff" stroke="transparent" points="-4,4 -4,-152 94.4482,-152 94.4482,4 -4,4"/>
<!-- 0 -->
<g id="node1" class="node">
<title>0</title>
<polygon fill="#dbdb8d" stroke="transparent" points="41.3964,-148 19.0518,-148 19.0518,-130 41.3964,-130 41.3964,-148"/>
<text text-anchor="middle" x="30.2241" y="-136" font-family="sans" font-size="10.00" fill="#000000">A</text>
</g>
<!-- 1 -->
<g id="node2" class="node">
<title>1</title>
<polygon fill="#aec7e8" stroke="transparent" points="44.5081,-122 15.9401,-122 15.9401,-104 44.5081,-104 44.5081,-122"/>
<text text-anchor="middle" x="30.2241" y="-110" font-family="sans" font-size="10.00" fill="#000000">R1</text>
</g>
<!-- 0&#45;&gt;1 -->
<g id="edge1" class="edge">
<title>0&#45;&gt;1</title>
<path fill="none" stroke="#c0c0c0" d="M30.2241,-129.9065C30.2241,-128.5226 30.2241,-127.0737 30.2241,-125.6308"/>
<polygon fill="#c0c0c0" stroke="#c0c0c0" points="31.2742,-125.3085 30.2241,-122.3086 29.1742,-125.3086 31.2742,-125.3085"/>
</g>
<!-- 2 -->
<g id="node3" class="node">
<title>2</title>
<polygon fill="#dbdb8d" stroke="transparent" points="30.6757,-96 -.2275,-96 -.2275,-78 30.6757,-78 30.6757,-96"/>
<text text-anchor="middle" x="15.2241" y="-84" font-family="sans" font-size="10.00" fill="#000000">A.x</text>
</g>
<!-- 1&#45;&gt;2 -->
<g id="edge2" class="edge">
<title>1&#45;&gt;2</title>
<path fill="none" stroke="#c0c0c0" d="M24.9778,-103.9065C24.0908,-102.3689 23.1573,-100.7509 22.2338,-99.1502"/>
<polygon fill="#c0c0c0" stroke="#c0c0c0" points="23.0032,-98.3824 20.5945,-96.3086 21.1842,-99.4319 23.0032,-98.3824"/>
</g>
<!-- 4 -->
<g id="node5" class="node">
<title>4</title>
<polygon fill="#aec7e8" stroke="transparent" points="60.5081,-96 31.9401,-96 31.9401,-78 60.5081,-78 60.5081,-96"/>
<text text-anchor="middle" x="46.2241" y="-84" font-family="sans" font-size="10.00" fill="#000000">R1</text>
</g>
<!-- 1&#45;&gt;4 -->
<g id="edge3" class="edge">
<title>1&#45;&gt;4</title>
<path fill="none" stroke="#c0c0c0" d="M35.8201,-103.9065C36.7664,-102.3689 37.762,-100.7509 38.7471,-99.1502"/>
<polygon fill="#c0c0c0" stroke="#c0c0c0" points="39.8177,-99.4139 40.4958,-96.3086 38.0292,-98.3132 39.8177,-99.4139"/>
</g>
<!-- 3 -->
<g id="node4" class="node">
<title>3</title>
<polygon fill="#eeeeee" stroke="transparent" points="25.79,-70 4.6582,-70 4.6582,-52 25.79,-52 25.79,-70"/>
<text text-anchor="middle" x="15.2241" y="-58" font-family="sans" font-size="10.00" fill="#000000">1</text>
</g>
<!-- 2&#45;&gt;3 -->
<g id="edge4" class="edge">
<title>2&#45;&gt;3</title>
<path fill="none" stroke="#c0c0c0" d="M15.2241,-77.9065C15.2241,-76.5226 15.2241,-75.0737 15.2241,-73.6308"/>
<polygon fill="#c0c0c0" stroke="#c0c0c0" points="16.2742,-73.3085 15.2241,-70.3086 14.1742,-73.3086 16.2742,-73.3085"/>
</g>
<!-- 5 -->
<g id="node6" class="node">
<title>5</title>
<polygon fill="#dbdb8d" stroke="transparent" points="59.6757,-70 28.7725,-70 28.7725,-52 59.6757,-52 59.6757,-70"/>
<text text-anchor="middle" x="44.2241" y="-58" font-family="sans" font-size="10.00" fill="#000000">A.x</text>
</g>
<!-- 4&#45;&gt;5 -->
<g id="edge5" class="edge">
<title>4&#45;&gt;5</title>
<path fill="none" stroke="#c0c0c0" d="M45.5246,-77.9065C45.4182,-76.5226 45.3067,-75.0737 45.1957,-73.6308"/>
<polygon fill="#c0c0c0" stroke="#c0c0c0" points="46.2172,-73.2192 44.9402,-70.3086 44.1234,-73.3803 46.2172,-73.2192"/>
</g>
<!-- 7 -->
<g id="node8" class="node">
<title>7</title>
<polygon fill="#aec7e8" stroke="transparent" points="89.5081,-70 60.9401,-70 60.9401,-52 89.5081,-52 89.5081,-70"/>
<text text-anchor="middle" x="75.2241" y="-58" font-family="sans" font-size="10.00" fill="#000000">R1</text>
</g>
<!-- 4&#45;&gt;7 -->
<g id="edge6" class="edge">
<title>4&#45;&gt;7</title>
<path fill="none" stroke="#c0c0c0" d="M56.3669,-77.9065C58.3392,-76.1382 60.43,-74.2637 62.4738,-72.4313"/>
<polygon fill="#c0c0c0" stroke="#c0c0c0" points="63.3087,-73.093 64.8415,-70.3086 61.9068,-71.5294 63.3087,-73.093"/>
</g>
<!-- 6 -->
<g id="node7" class="node">
<title>6</title>
<polygon fill="#eeeeee" stroke="transparent" points="54.79,-44 33.6582,-44 33.6582,-26 54.79,-26 54.79,-44"/>
<text text-anchor="middle" x="44.2241" y="-32" font-family="sans" font-size="10.00" fill="#000000">2</text>
</g>
<!-- 5&#45;&gt;6 -->
<g id="edge7" class="edge">
<title>5&#45;&gt;6</title>
<path fill="none" stroke="#c0c0c0" d="M44.2241,-51.9065C44.2241,-50.5226 44.2241,-49.0737 44.2241,-47.6308"/>
<polygon fill="#c0c0c0" stroke="#c0c0c0" points="45.2742,-47.3085 44.2241,-44.3086 43.1742,-47.3086 45.2742,-47.3085"/>
</g>
<!-- 8 -->
<g id="node9" class="node">
<title>8</title>
<polygon fill="#dbdb8d" stroke="transparent" points="90.6757,-44 59.7725,-44 59.7725,-26 90.6757,-26 90.6757,-44"/>
<text text-anchor="middle" x="75.2241" y="-32" font-family="sans" font-size="10.00" fill="#000000">A.x</text>
</g>
<!-- 7&#45;&gt;8 -->
<g id="edge8" class="edge">
<title>7&#45;&gt;8</title>
<path fill="none" stroke="#c0c0c0" d="M75.2241,-51.9065C75.2241,-50.5226 75.2241,-49.0737 75.2241,-47.6308"/>
<polygon fill="#c0c0c0" stroke="#c0c0c0" points="76.2742,-47.3085 75.2241,-44.3086 74.1742,-47.3086 76.2742,-47.3085"/>
</g>
<!-- 9 -->
<g id="node10" class="node">
<title>9</title>
<polygon fill="#eeeeee" stroke="transparent" points="85.79,-18 64.6582,-18 64.6582,0 85.79,0 85.79,-18"/>
<text text-anchor="middle" x="75.2241" y="-6" font-family="sans" font-size="10.00" fill="#000000">3</text>
</g>
<!-- 8&#45;&gt;9 -->
<g id="edge9" class="edge">
<title>8&#45;&gt;9</title>
<path fill="none" stroke="#c0c0c0" d="M75.2241,-25.9065C75.2241,-24.5226 75.2241,-23.0737 75.2241,-21.6308"/>
<polygon fill="#c0c0c0" stroke="#c0c0c0" points="76.2742,-21.3085 75.2241,-18.3086 74.1742,-21.3086 76.2742,-21.3085"/>
</g>
</g>
</svg>
