<?xml version="1.0" encoding="UTF-8" standalone="no"?>
<!DOCTYPE svg PUBLIC "-//W3C//DTD SVG 1.1//EN"
 "http://www.w3.org/Graphics/SVG/1.1/DTD/svg11.dtd">
<!-- Generated by graphviz version 2.40.1 (20161225.0304)
 -->
<!-- Title: 4381072688 Pages: 1 -->
<svg width="167pt" height="78pt"
 viewBox="0.00 0.00 167.18 78.00" xmlns="http://www.w3.org/2000/svg" xmlns:xlink="http://www.w3.org/1999/xlink">
<g id="graph0" class="graph" transform="scale(1 1) rotate(0) translate(4 74)">
<title>4381072688</title>
<polygon fill="#ffffff" stroke="transparent" points="-4,4 -4,-74 163.1812,-74 163.1812,4 -4,4"/>
<!-- 4381150344 -->
<g id="node1" class="node">
<title>4381150344</title>
<polygon fill="#dbdb8d" stroke="transparent" points="98.9956,-70 52.9663,-70 52.9663,-52 98.9956,-52 98.9956,-70"/>
<text text-anchor="middle" x="75.981" y="-58" font-family="sans" font-size="10.00" fill="#000000">Money</text>
</g>
<!-- 4381150400 -->
<g id="node2" class="node">
<title>4381150400</title>
<polygon fill="#dbdb8d" stroke="transparent" points="71.9429,-44 .019,-44 .019,-26 71.9429,-26 71.9429,-44"/>
<text text-anchor="middle" x="35.981" y="-32" font-family="sans" font-size="10.00" fill="#000000">Money.value</text>
</g>
<!-- 4381150344&#45;&gt;4381150400 -->
<g id="edge1" class="edge">
<title>4381150344&#45;&gt;4381150400</title>
<path fill="none" stroke="#c0c0c0" d="M61.9909,-51.9065C58.9636,-49.9387 55.7337,-47.8393 52.6162,-45.8129"/>
<polygon fill="#c0c0c0" stroke="#c0c0c0" points="53.1183,-44.887 50.0307,-44.1324 51.9738,-46.6477 53.1183,-44.887"/>
</g>
<!-- 4381150568 -->
<g id="node5" class="node">
<title>4381150568</title>
<polygon fill="#dbdb8d" stroke="transparent" points="159.3823,-44 72.5796,-44 72.5796,-26 159.3823,-26 159.3823,-44"/>
<text text-anchor="middle" x="115.981" y="-32" font-family="sans" font-size="10.00" fill="#000000">Money.currency</text>
</g>
<!-- 4381150344&#45;&gt;4381150568 -->
<g id="edge2" class="edge">
<title>4381150344&#45;&gt;4381150568</title>
<path fill="none" stroke="#c0c0c0" d="M89.971,-51.9065C92.9983,-49.9387 96.2282,-47.8393 99.3458,-45.8129"/>
<polygon fill="#c0c0c0" stroke="#c0c0c0" points="99.9881,-46.6477 101.9312,-44.1324 98.8436,-44.887 99.9881,-46.6477"/>
</g>
<!-- 4381150456 -->
<g id="node3" class="node">
<title>4381150456</title>
<polygon fill="#eeeeee" stroke="transparent" points="29.5469,-18 8.4151,-18 8.4151,0 29.5469,0 29.5469,-18"/>
<text text-anchor="middle" x="18.981" y="-6" font-family="sans" font-size="10.00" fill="#000000">5</text>
</g>
<!-- 4381150400&#45;&gt;4381150456 -->
<g id="edge3" class="edge">
<title>4381150400&#45;&gt;4381150456</title>
<path fill="none" stroke="#c0c0c0" d="M30.0352,-25.9065C29.0298,-24.3689 27.9719,-22.7509 26.9253,-21.1502"/>
<polygon fill="#c0c0c0" stroke="#c0c0c0" points="27.5879,-20.2449 25.0673,-18.3086 25.8303,-21.3941 27.5879,-20.2449"/>
</g>
<!-- 4381150512 -->
<g id="node4" class="node">
<title>4381150512</title>
<polygon fill="#eeeeee" stroke="transparent" points="75.1649,-18 30.797,-18 30.797,0 75.1649,0 75.1649,-18"/>
<text text-anchor="middle" x="52.981" y="-6" font-family="sans" font-size="10.00" fill="#000000">тысяч</text>
</g>
<!-- 4381150400&#45;&gt;4381150512 -->
<g id="edge4" class="edge">
<title>4381150400&#45;&gt;4381150512</title>
<path fill="none" stroke="#c0c0c0" d="M41.9267,-25.9065C42.9321,-24.3689 43.99,-22.7509 45.0366,-21.1502"/>
<polygon fill="#c0c0c0" stroke="#c0c0c0" points="46.1316,-21.3941 46.8946,-18.3086 44.374,-20.2449 46.1316,-21.3941"/>
</g>
<!-- 4381150624 -->
<g id="node6" class="node">
<title>4381150624</title>
<polygon fill="#eeeeee" stroke="transparent" points="126.5469,-18 105.4151,-18 105.4151,0 126.5469,0 126.5469,-18"/>
<text text-anchor="middle" x="115.981" y="-6" font-family="sans" font-size="10.00" fill="#000000">$</text>
</g>
<!-- 4381150568&#45;&gt;4381150624 -->
<g id="edge5" class="edge">
<title>4381150568&#45;&gt;4381150624</title>
<path fill="none" stroke="#c0c0c0" d="M115.981,-25.9065C115.981,-24.5226 115.981,-23.0737 115.981,-21.6308"/>
<polygon fill="#c0c0c0" stroke="#c0c0c0" points="117.031,-21.3085 115.981,-18.3086 114.931,-21.3086 117.031,-21.3085"/>
</g>
</g>
</svg>
