<?xml version="1.0" encoding="UTF-8" standalone="no"?>
<!DOCTYPE svg PUBLIC "-//W3C//DTD SVG 1.1//EN"
 "http://www.w3.org/Graphics/SVG/1.1/DTD/svg11.dtd">
<!-- Generated by graphviz version 2.40.1 (20161225.0304)
 -->
<!-- Title: G Pages: 1 -->
<svg width="176pt" height="182pt"
 viewBox="0.00 0.00 176.47 182.00" xmlns="http://www.w3.org/2000/svg" xmlns:xlink="http://www.w3.org/1999/xlink">
<g id="graph0" class="graph" transform="scale(1 1) rotate(0) translate(4 178)">
<title>G</title>
<polygon fill="#ffffff" stroke="transparent" points="-4,4 -4,-178 172.4678,-178 172.4678,4 -4,4"/>
<!-- 0 -->
<g id="node1" class="node">
<title>0</title>
<polygon fill="#dbdb8d" stroke="transparent" points="116.7319,-174 80.8296,-174 80.8296,-156 116.7319,-156 116.7319,-174"/>
<text text-anchor="middle" x="98.7808" y="-162" font-family="sans" font-size="10.00" fill="#000000">Item</text>
</g>
<!-- 1 -->
<g id="node2" class="node">
<title>1</title>
<polygon fill="#aec7e8" stroke="transparent" points="113.0648,-148 84.4967,-148 84.4967,-130 113.0648,-130 113.0648,-148"/>
<text text-anchor="middle" x="98.7808" y="-136" font-family="sans" font-size="10.00" fill="#000000">R1</text>
</g>
<!-- 0&#45;&gt;1 -->
<g id="edge1" class="edge">
<title>0&#45;&gt;1</title>
<path fill="none" stroke="#c0c0c0" d="M98.7808,-155.9065C98.7808,-154.5226 98.7808,-153.0737 98.7808,-151.6308"/>
<polygon fill="#c0c0c0" stroke="#c0c0c0" points="99.8309,-151.3085 98.7808,-148.3086 97.7309,-151.3086 99.8309,-151.3085"/>
</g>
<!-- 2 -->
<g id="node3" class="node">
<title>2</title>
<polygon fill="#aec7e8" stroke="transparent" points="98.0648,-122 69.4967,-122 69.4967,-104 98.0648,-104 98.0648,-122"/>
<text text-anchor="middle" x="83.7808" y="-110" font-family="sans" font-size="10.00" fill="#000000">R4</text>
</g>
<!-- 1&#45;&gt;2 -->
<g id="edge2" class="edge">
<title>1&#45;&gt;2</title>
<path fill="none" stroke="#c0c0c0" d="M93.5345,-129.9065C92.6474,-128.3689 91.714,-126.7509 90.7905,-125.1502"/>
<polygon fill="#c0c0c0" stroke="#c0c0c0" points="91.5598,-124.3824 89.1511,-122.3086 89.7408,-125.4319 91.5598,-124.3824"/>
</g>
<!-- 10 -->
<g id="node11" class="node">
<title>10</title>
<polygon fill="#aec7e8" stroke="transparent" points="135.0648,-122 106.4967,-122 106.4967,-104 135.0648,-104 135.0648,-122"/>
<text text-anchor="middle" x="120.7808" y="-110" font-family="sans" font-size="10.00" fill="#000000">R1</text>
</g>
<!-- 1&#45;&gt;10 -->
<g id="edge3" class="edge">
<title>1&#45;&gt;10</title>
<path fill="none" stroke="#c0c0c0" d="M106.4753,-129.9065C107.9064,-128.2151 109.4199,-126.4265 110.9057,-124.6705"/>
<polygon fill="#c0c0c0" stroke="#c0c0c0" points="111.768,-125.277 112.9043,-122.3086 110.1649,-123.9205 111.768,-125.277"/>
</g>
<!-- 3 -->
<g id="node4" class="node">
<title>3</title>
<polygon fill="#dbdb8d" stroke="transparent" points="67.0692,-96 8.4923,-96 8.4923,-78 67.0692,-78 67.0692,-96"/>
<text text-anchor="middle" x="37.7808" y="-84" font-family="sans" font-size="10.00" fill="#000000">Item.titles</text>
</g>
<!-- 2&#45;&gt;3 -->
<g id="edge4" class="edge">
<title>2&#45;&gt;3</title>
<path fill="none" stroke="#c0c0c0" d="M69.2261,-104.7734C65.291,-102.5493 60.973,-100.1086 56.8311,-97.7676"/>
<polygon fill="#c0c0c0" stroke="#c0c0c0" points="57.127,-96.7288 53.9986,-96.1666 56.0937,-98.5569 57.127,-96.7288"/>
</g>
<!-- 8 -->
<g id="node9" class="node">
<title>8</title>
<polygon fill="#aec7e8" stroke="transparent" points="98.0648,-96 69.4967,-96 69.4967,-78 98.0648,-78 98.0648,-96"/>
<text text-anchor="middle" x="83.7808" y="-84" font-family="sans" font-size="10.00" fill="#000000">R3</text>
</g>
<!-- 2&#45;&gt;8 -->
<g id="edge5" class="edge">
<title>2&#45;&gt;8</title>
<path fill="none" stroke="#c0c0c0" d="M83.7808,-103.9065C83.7808,-102.5226 83.7808,-101.0737 83.7808,-99.6308"/>
<polygon fill="#c0c0c0" stroke="#c0c0c0" points="84.8309,-99.3085 83.7808,-96.3086 82.7309,-99.3086 84.8309,-99.3085"/>
</g>
<!-- 4 -->
<g id="node5" class="node">
<title>4</title>
<polygon fill="#eeeeee" stroke="transparent" points="21.3467,-70 .2149,-70 .2149,-52 21.3467,-52 21.3467,-70"/>
<text text-anchor="middle" x="10.7808" y="-58" font-family="sans" font-size="10.00" fill="#000000">«</text>
</g>
<!-- 3&#45;&gt;4 -->
<g id="edge6" class="edge">
<title>3&#45;&gt;4</title>
<path fill="none" stroke="#c0c0c0" d="M28.3375,-77.9065C26.5811,-76.2151 24.7236,-74.4265 22.9002,-72.6705"/>
<polygon fill="#c0c0c0" stroke="#c0c0c0" points="23.3367,-71.6332 20.4474,-70.3086 21.88,-73.1459 23.3367,-71.6332"/>
</g>
<!-- 5 -->
<g id="node6" class="node">
<title>5</title>
<polygon fill="#aec7e8" stroke="transparent" points="51.0648,-70 22.4967,-70 22.4967,-52 51.0648,-52 51.0648,-70"/>
<text text-anchor="middle" x="36.7808" y="-58" font-family="sans" font-size="10.00" fill="#000000">R5</text>
</g>
<!-- 3&#45;&gt;5 -->
<g id="edge7" class="edge">
<title>3&#45;&gt;5</title>
<path fill="none" stroke="#c0c0c0" d="M37.431,-77.9065C37.3778,-76.5226 37.3221,-75.0737 37.2666,-73.6308"/>
<polygon fill="#c0c0c0" stroke="#c0c0c0" points="38.3034,-73.266 37.1388,-70.3086 36.2049,-73.3467 38.3034,-73.266"/>
</g>
<!-- 7 -->
<g id="node8" class="node">
<title>7</title>
<polygon fill="#eeeeee" stroke="transparent" points="73.3467,-70 52.2149,-70 52.2149,-52 73.3467,-52 73.3467,-70"/>
<text text-anchor="middle" x="62.7808" y="-58" font-family="sans" font-size="10.00" fill="#000000">»</text>
</g>
<!-- 3&#45;&gt;7 -->
<g id="edge8" class="edge">
<title>3&#45;&gt;7</title>
<path fill="none" stroke="#c0c0c0" d="M46.5245,-77.9065C48.1509,-76.2151 49.8707,-74.4265 51.5591,-72.6705"/>
<polygon fill="#c0c0c0" stroke="#c0c0c0" points="52.5077,-73.1989 53.8302,-70.3086 50.994,-71.7433 52.5077,-73.1989"/>
</g>
<!-- 6 -->
<g id="node7" class="node">
<title>6</title>
<polygon fill="#eeeeee" stroke="transparent" points="68.4539,-44 5.1077,-44 5.1077,-26 68.4539,-26 68.4539,-44"/>
<text text-anchor="middle" x="36.7808" y="-32" font-family="sans" font-size="10.00" fill="#000000">Каштанка</text>
</g>
<!-- 5&#45;&gt;6 -->
<g id="edge9" class="edge">
<title>5&#45;&gt;6</title>
<path fill="none" stroke="#c0c0c0" d="M36.7808,-51.9065C36.7808,-50.5226 36.7808,-49.0737 36.7808,-47.6308"/>
<polygon fill="#c0c0c0" stroke="#c0c0c0" points="37.8309,-47.3085 36.7808,-44.3086 35.7309,-47.3086 37.8309,-47.3085"/>
</g>
<!-- 9 -->
<g id="node10" class="node">
<title>9</title>
<polygon fill="#eeeeee" stroke="transparent" points="93.0604,-70 74.5011,-70 74.5011,-52 93.0604,-52 93.0604,-70"/>
<text text-anchor="middle" x="83.7808" y="-58" font-family="sans" font-size="10.00" fill="#000000">,</text>
</g>
<!-- 8&#45;&gt;9 -->
<g id="edge10" class="edge">
<title>8&#45;&gt;9</title>
<path fill="none" stroke="#c0c0c0" d="M83.7808,-77.9065C83.7808,-76.5226 83.7808,-75.0737 83.7808,-73.6308"/>
<polygon fill="#c0c0c0" stroke="#c0c0c0" points="84.8309,-73.3085 83.7808,-70.3086 82.7309,-73.3086 84.8309,-73.3085"/>
</g>
<!-- 11 -->
<g id="node12" class="node">
<title>11</title>
<polygon fill="#dbdb8d" stroke="transparent" points="159.0692,-96 100.4923,-96 100.4923,-78 159.0692,-78 159.0692,-96"/>
<text text-anchor="middle" x="129.7808" y="-84" font-family="sans" font-size="10.00" fill="#000000">Item.titles</text>
</g>
<!-- 10&#45;&gt;11 -->
<g id="edge11" class="edge">
<title>10&#45;&gt;11</title>
<path fill="none" stroke="#c0c0c0" d="M123.9285,-103.9065C124.4608,-102.3689 125.0208,-100.7509 125.5749,-99.1502"/>
<polygon fill="#c0c0c0" stroke="#c0c0c0" points="126.5694,-99.487 126.5586,-96.3086 124.5849,-98.8 126.5694,-99.487"/>
</g>
<!-- 12 -->
<g id="node13" class="node">
<title>12</title>
<polygon fill="#eeeeee" stroke="transparent" points="115.3467,-70 94.2149,-70 94.2149,-52 115.3467,-52 115.3467,-70"/>
<text text-anchor="middle" x="104.7808" y="-58" font-family="sans" font-size="10.00" fill="#000000">«</text>
</g>
<!-- 11&#45;&gt;12 -->
<g id="edge12" class="edge">
<title>11&#45;&gt;12</title>
<path fill="none" stroke="#c0c0c0" d="M121.037,-77.9065C119.4107,-76.2151 117.6908,-74.4265 116.0024,-72.6705"/>
<polygon fill="#c0c0c0" stroke="#c0c0c0" points="116.5676,-71.7433 113.7313,-70.3086 115.0538,-73.1989 116.5676,-71.7433"/>
</g>
<!-- 13 -->
<g id="node14" class="node">
<title>13</title>
<polygon fill="#aec7e8" stroke="transparent" points="145.0648,-70 116.4967,-70 116.4967,-52 145.0648,-52 145.0648,-70"/>
<text text-anchor="middle" x="130.7808" y="-58" font-family="sans" font-size="10.00" fill="#000000">R5</text>
</g>
<!-- 11&#45;&gt;13 -->
<g id="edge13" class="edge">
<title>11&#45;&gt;13</title>
<path fill="none" stroke="#c0c0c0" d="M130.1305,-77.9065C130.1837,-76.5226 130.2395,-75.0737 130.295,-73.6308"/>
<polygon fill="#c0c0c0" stroke="#c0c0c0" points="131.3566,-73.3467 130.4227,-70.3086 129.2581,-73.266 131.3566,-73.3467"/>
</g>
<!-- 17 -->
<g id="node18" class="node">
<title>17</title>
<polygon fill="#eeeeee" stroke="transparent" points="167.3467,-70 146.2149,-70 146.2149,-52 167.3467,-52 167.3467,-70"/>
<text text-anchor="middle" x="156.7808" y="-58" font-family="sans" font-size="10.00" fill="#000000">»</text>
</g>
<!-- 11&#45;&gt;17 -->
<g id="edge14" class="edge">
<title>11&#45;&gt;17</title>
<path fill="none" stroke="#c0c0c0" d="M139.2241,-77.9065C140.9805,-76.2151 142.8379,-74.4265 144.6613,-72.6705"/>
<polygon fill="#c0c0c0" stroke="#c0c0c0" points="145.6815,-73.1459 147.1142,-70.3086 144.2248,-71.6332 145.6815,-73.1459"/>
</g>
<!-- 14 -->
<g id="node15" class="node">
<title>14</title>
<polygon fill="#eeeeee" stroke="transparent" points="133.0148,-44 92.5467,-44 92.5467,-26 133.0148,-26 133.0148,-44"/>
<text text-anchor="middle" x="112.7808" y="-32" font-family="sans" font-size="10.00" fill="#000000">Дядя</text>
</g>
<!-- 13&#45;&gt;14 -->
<g id="edge15" class="edge">
<title>13&#45;&gt;14</title>
<path fill="none" stroke="#c0c0c0" d="M124.4852,-51.9065C123.4207,-50.3689 122.3006,-48.7509 121.1924,-47.1502"/>
<polygon fill="#c0c0c0" stroke="#c0c0c0" points="121.7961,-46.1775 119.2252,-44.3086 120.0695,-47.3728 121.7961,-46.1775"/>
</g>
<!-- 15 -->
<g id="node16" class="node">
<title>15</title>
<polygon fill="#aec7e8" stroke="transparent" points="163.0648,-44 134.4967,-44 134.4967,-26 163.0648,-26 163.0648,-44"/>
<text text-anchor="middle" x="148.7808" y="-32" font-family="sans" font-size="10.00" fill="#000000">R5</text>
</g>
<!-- 13&#45;&gt;15 -->
<g id="edge16" class="edge">
<title>13&#45;&gt;15</title>
<path fill="none" stroke="#c0c0c0" d="M137.0763,-51.9065C138.1408,-50.3689 139.2609,-48.7509 140.3691,-47.1502"/>
<polygon fill="#c0c0c0" stroke="#c0c0c0" points="141.492,-47.3728 142.3364,-44.3086 139.7654,-46.1775 141.492,-47.3728"/>
</g>
<!-- 16 -->
<g id="node17" class="node">
<title>16</title>
<polygon fill="#eeeeee" stroke="transparent" points="168.6566,-18 128.9049,-18 128.9049,0 168.6566,0 168.6566,-18"/>
<text text-anchor="middle" x="148.7808" y="-6" font-family="sans" font-size="10.00" fill="#000000">Ваня</text>
</g>
<!-- 15&#45;&gt;16 -->
<g id="edge17" class="edge">
<title>15&#45;&gt;16</title>
<path fill="none" stroke="#c0c0c0" d="M148.7808,-25.9065C148.7808,-24.5226 148.7808,-23.0737 148.7808,-21.6308"/>
<polygon fill="#c0c0c0" stroke="#c0c0c0" points="149.8309,-21.3085 148.7808,-18.3086 147.7309,-21.3086 149.8309,-21.3085"/>
</g>
</g>
</svg>
