<?xml version="1.0" encoding="UTF-8" standalone="no"?>
<!DOCTYPE svg PUBLIC "-//W3C//DTD SVG 1.1//EN"
 "http://www.w3.org/Graphics/SVG/1.1/DTD/svg11.dtd">
<!-- Generated by graphviz version 2.40.1 (20161225.0304)
 -->
<!-- Title: 4381295112 Pages: 1 -->
<svg width="242pt" height="130pt"
 viewBox="0.00 0.00 241.63 130.00" xmlns="http://www.w3.org/2000/svg" xmlns:xlink="http://www.w3.org/1999/xlink">
<g id="graph0" class="graph" transform="scale(1 1) rotate(0) translate(4 126)">
<title>4381295112</title>
<polygon fill="#ffffff" stroke="transparent" points="-4,4 -4,-126 237.6279,-126 237.6279,4 -4,4"/>
<!-- 4381295392 -->
<g id="node1" class="node">
<title>4381295392</title>
<polygon fill="#dbdb8d" stroke="transparent" points="109.7319,-122 73.8296,-122 73.8296,-104 109.7319,-104 109.7319,-122"/>
<text text-anchor="middle" x="91.7808" y="-110" font-family="sans" font-size="10.00" fill="#000000">Item</text>
</g>
<!-- 4381295784 -->
<g id="node2" class="node">
<title>4381295784</title>
<polygon fill="#dbdb8d" stroke="transparent" points="85.7319,-96 49.8296,-96 49.8296,-78 85.7319,-78 85.7319,-96"/>
<text text-anchor="middle" x="67.7808" y="-84" font-family="sans" font-size="10.00" fill="#000000">Item</text>
</g>
<!-- 4381295392&#45;&gt;4381295784 -->
<g id="edge1" class="edge">
<title>4381295392&#45;&gt;4381295784</title>
<path fill="none" stroke="#c0c0c0" d="M83.3867,-103.9065C81.8255,-102.2151 80.1744,-100.4265 78.5536,-98.6705"/>
<polygon fill="#c0c0c0" stroke="#c0c0c0" points="79.1797,-97.8008 76.3733,-96.3086 77.6366,-99.2252 79.1797,-97.8008"/>
</g>
<!-- 4381295952 -->
<g id="node7" class="node">
<title>4381295952</title>
<polygon fill="#dbdb8d" stroke="transparent" points="161.471,-96 104.0905,-96 104.0905,-78 161.471,-78 161.471,-96"/>
<text text-anchor="middle" x="132.7808" y="-84" font-family="sans" font-size="10.00" fill="#000000">Item.date</text>
</g>
<!-- 4381295392&#45;&gt;4381295952 -->
<g id="edge2" class="edge">
<title>4381295392&#45;&gt;4381295952</title>
<path fill="none" stroke="#c0c0c0" d="M106.1206,-103.9065C109.2236,-101.9387 112.5342,-99.8393 115.7297,-97.8129"/>
<polygon fill="#c0c0c0" stroke="#c0c0c0" points="116.4085,-98.6258 118.3797,-96.1324 115.2839,-96.8523 116.4085,-98.6258"/>
</g>
<!-- 4381295896 -->
<g id="node3" class="node">
<title>4381295896</title>
<polygon fill="#dbdb8d" stroke="transparent" points="89.5693,-70 35.9923,-70 35.9923,-52 89.5693,-52 89.5693,-70"/>
<text text-anchor="middle" x="62.7808" y="-58" font-family="sans" font-size="10.00" fill="#000000">Item.title</text>
</g>
<!-- 4381295784&#45;&gt;4381295896 -->
<g id="edge3" class="edge">
<title>4381295784&#45;&gt;4381295896</title>
<path fill="none" stroke="#c0c0c0" d="M66.032,-77.9065C65.7659,-76.5226 65.4872,-75.0737 65.2098,-73.6308"/>
<polygon fill="#c0c0c0" stroke="#c0c0c0" points="66.1686,-73.0563 64.5709,-70.3086 64.1064,-73.4529 66.1686,-73.0563"/>
</g>
<!-- 4381355312 -->
<g id="node4" class="node">
<title>4381355312</title>
<polygon fill="#eeeeee" stroke="transparent" points="21.3467,-44 .2149,-44 .2149,-26 21.3467,-26 21.3467,-44"/>
<text text-anchor="middle" x="10.7808" y="-32" font-family="sans" font-size="10.00" fill="#000000">«</text>
</g>
<!-- 4381295896&#45;&gt;4381355312 -->
<g id="edge4" class="edge">
<title>4381295896&#45;&gt;4381355312</title>
<path fill="none" stroke="#c0c0c0" d="M41.8427,-51.8646C36.5461,-49.4218 30.9075,-46.7053 25.7808,-44 25.257,-43.7236 24.726,-43.4371 24.1919,-43.1437"/>
<polygon fill="#c0c0c0" stroke="#c0c0c0" points="24.6435,-42.1929 21.5148,-41.6328 23.6114,-44.0217 24.6435,-42.1929"/>
</g>
<!-- 4381355424 -->
<g id="node5" class="node">
<title>4381355424</title>
<polygon fill="#eeeeee" stroke="transparent" points="85.4539,-44 22.1077,-44 22.1077,-26 85.4539,-26 85.4539,-44"/>
<text text-anchor="middle" x="53.7808" y="-32" font-family="sans" font-size="10.00" fill="#000000">Каштанка</text>
</g>
<!-- 4381295896&#45;&gt;4381355424 -->
<g id="edge5" class="edge">
<title>4381295896&#45;&gt;4381355424</title>
<path fill="none" stroke="#c0c0c0" d="M59.633,-51.9065C59.1008,-50.3689 58.5407,-48.7509 57.9866,-47.1502"/>
<polygon fill="#c0c0c0" stroke="#c0c0c0" points="58.9766,-46.8 57.003,-44.3086 56.9921,-47.487 58.9766,-46.8"/>
</g>
<!-- 4381355480 -->
<g id="node6" class="node">
<title>4381355480</title>
<polygon fill="#eeeeee" stroke="transparent" points="107.3467,-44 86.2149,-44 86.2149,-26 107.3467,-26 107.3467,-44"/>
<text text-anchor="middle" x="96.7808" y="-32" font-family="sans" font-size="10.00" fill="#000000">»</text>
</g>
<!-- 4381295896&#45;&gt;4381355480 -->
<g id="edge6" class="edge">
<title>4381295896&#45;&gt;4381355480</title>
<path fill="none" stroke="#c0c0c0" d="M74.6723,-51.9065C77.5448,-49.7099 80.6317,-47.3493 83.5609,-45.1093"/>
<polygon fill="#c0c0c0" stroke="#c0c0c0" points="84.231,-45.9188 85.9762,-43.2623 82.9553,-44.2506 84.231,-45.9188"/>
</g>
<!-- 4381296064 -->
<g id="node8" class="node">
<title>4381296064</title>
<polygon fill="#dbdb8d" stroke="transparent" points="155.404,-70 118.1575,-70 118.1575,-52 155.404,-52 155.404,-70"/>
<text text-anchor="middle" x="136.7808" y="-58" font-family="sans" font-size="10.00" fill="#000000">Date</text>
</g>
<!-- 4381295952&#45;&gt;4381296064 -->
<g id="edge7" class="edge">
<title>4381295952&#45;&gt;4381296064</title>
<path fill="none" stroke="#c0c0c0" d="M134.1798,-77.9065C134.3927,-76.5226 134.6156,-75.0737 134.8376,-73.6308"/>
<polygon fill="#c0c0c0" stroke="#c0c0c0" points="135.9302,-73.4334 135.3487,-70.3086 133.8546,-73.114 135.9302,-73.4334"/>
</g>
<!-- 4381296120 -->
<g id="node9" class="node">
<title>4381296120</title>
<polygon fill="#dbdb8d" stroke="transparent" points="164.8052,-44 108.7563,-44 108.7563,-26 164.8052,-26 164.8052,-44"/>
<text text-anchor="middle" x="136.7808" y="-32" font-family="sans" font-size="10.00" fill="#000000">Date.day</text>
</g>
<!-- 4381296064&#45;&gt;4381296120 -->
<g id="edge8" class="edge">
<title>4381296064&#45;&gt;4381296120</title>
<path fill="none" stroke="#c0c0c0" d="M136.7808,-51.9065C136.7808,-50.5226 136.7808,-49.0737 136.7808,-47.6308"/>
<polygon fill="#c0c0c0" stroke="#c0c0c0" points="137.8309,-47.3085 136.7808,-44.3086 135.7309,-47.3086 137.8309,-47.3085"/>
</g>
<!-- 4381296176 -->
<g id="node11" class="node">
<title>4381296176</title>
<polygon fill="#dbdb8d" stroke="transparent" points="233.4758,-44 166.0857,-44 166.0857,-26 233.4758,-26 233.4758,-44"/>
<text text-anchor="middle" x="199.7808" y="-32" font-family="sans" font-size="10.00" fill="#000000">Date.month</text>
</g>
<!-- 4381296064&#45;&gt;4381296176 -->
<g id="edge9" class="edge">
<title>4381296064&#45;&gt;4381296176</title>
<path fill="none" stroke="#c0c0c0" d="M155.6828,-53.1991C161.6631,-50.7311 168.3687,-47.9637 174.7111,-45.3462"/>
<polygon fill="#c0c0c0" stroke="#c0c0c0" points="175.4181,-46.1904 177.7906,-44.0753 174.6169,-44.2492 175.4181,-46.1904"/>
</g>
<!-- 4381355704 -->
<g id="node10" class="node">
<title>4381355704</title>
<polygon fill="#eeeeee" stroke="transparent" points="150.4041,-18 123.1574,-18 123.1574,0 150.4041,0 150.4041,-18"/>
<text text-anchor="middle" x="136.7808" y="-6" font-family="sans" font-size="10.00" fill="#000000">18</text>
</g>
<!-- 4381296120&#45;&gt;4381355704 -->
<g id="edge10" class="edge">
<title>4381296120&#45;&gt;4381355704</title>
<path fill="none" stroke="#c0c0c0" d="M136.7808,-25.9065C136.7808,-24.5226 136.7808,-23.0737 136.7808,-21.6308"/>
<polygon fill="#c0c0c0" stroke="#c0c0c0" points="137.8309,-21.3085 136.7808,-18.3086 135.7309,-21.3086 137.8309,-21.3085"/>
</g>
<!-- 4381355816 -->
<g id="node12" class="node">
<title>4381355816</title>
<polygon fill="#eeeeee" stroke="transparent" points="220.0373,-18 179.5242,-18 179.5242,0 220.0373,0 220.0373,-18"/>
<text text-anchor="middle" x="199.7808" y="-6" font-family="sans" font-size="10.00" fill="#000000">июня</text>
</g>
<!-- 4381296176&#45;&gt;4381355816 -->
<g id="edge11" class="edge">
<title>4381296176&#45;&gt;4381355816</title>
<path fill="none" stroke="#c0c0c0" d="M199.7808,-25.9065C199.7808,-24.5226 199.7808,-23.0737 199.7808,-21.6308"/>
<polygon fill="#c0c0c0" stroke="#c0c0c0" points="200.8309,-21.3085 199.7808,-18.3086 198.7309,-21.3086 200.8309,-21.3085"/>
</g>
</g>
</svg>
