<?xml version="1.0" encoding="UTF-8" standalone="no"?>
<!DOCTYPE svg PUBLIC "-//W3C//DTD SVG 1.1//EN"
 "http://www.w3.org/Graphics/SVG/1.1/DTD/svg11.dtd">
<!-- Generated by graphviz version 2.40.1 (20161225.0304)
 -->
<!-- Title: 4381150512 Pages: 1 -->
<svg width="59pt" height="130pt"
 viewBox="0.00 0.00 58.56 130.00" xmlns="http://www.w3.org/2000/svg" xmlns:xlink="http://www.w3.org/1999/xlink">
<g id="graph0" class="graph" transform="scale(1 1) rotate(0) translate(4 126)">
<title>4381150512</title>
<polygon fill="#ffffff" stroke="transparent" points="-4,4 -4,-126 54.5591,-126 54.5591,4 -4,4"/>
<!-- 4381188952 -->
<g id="node1" class="node">
<title>4381188952</title>
<polygon fill="#dbdb8d" stroke="transparent" points="34.5073,-122 12.1627,-122 12.1627,-104 34.5073,-104 34.5073,-122"/>
<text text-anchor="middle" x="23.335" y="-110" font-family="sans" font-size="10.00" fill="#000000">A</text>
</g>
<!-- 4381189008 -->
<g id="node2" class="node">
<title>4381189008</title>
<polygon fill="#dbdb8d" stroke="transparent" points="38.7866,-96 7.8834,-96 7.8834,-78 38.7866,-78 38.7866,-96"/>
<text text-anchor="middle" x="23.335" y="-84" font-family="sans" font-size="10.00" fill="#000000">A.x</text>
</g>
<!-- 4381188952&#45;&gt;4381189008 -->
<g id="edge1" class="edge">
<title>4381188952&#45;&gt;4381189008</title>
<path fill="none" stroke="#c0c0c0" d="M23.335,-103.9065C23.335,-102.5226 23.335,-101.0737 23.335,-99.6308"/>
<polygon fill="#c0c0c0" stroke="#c0c0c0" points="24.3851,-99.3085 23.335,-96.3086 22.2851,-99.3086 24.3851,-99.3085"/>
</g>
<!-- 4381189064 -->
<g id="node3" class="node">
<title>4381189064</title>
<polygon fill="#eeeeee" stroke="transparent" points="22.5073,-70 .1627,-70 .1627,-52 22.5073,-52 22.5073,-70"/>
<text text-anchor="middle" x="11.335" y="-58" font-family="sans" font-size="10.00" fill="#000000">X</text>
</g>
<!-- 4381189008&#45;&gt;4381189064 -->
<g id="edge2" class="edge">
<title>4381189008&#45;&gt;4381189064</title>
<path fill="none" stroke="#c0c0c0" d="M19.1379,-77.9065C18.4283,-76.3689 17.6815,-74.7509 16.9427,-73.1502"/>
<polygon fill="#c0c0c0" stroke="#c0c0c0" points="17.8418,-72.5924 15.6312,-70.3086 15.9351,-73.4725 17.8418,-72.5924"/>
</g>
<!-- 4381189120 -->
<g id="node4" class="node">
<title>4381189120</title>
<polygon fill="#dbdb8d" stroke="transparent" points="46.5073,-70 24.1627,-70 24.1627,-52 46.5073,-52 46.5073,-70"/>
<text text-anchor="middle" x="35.335" y="-58" font-family="sans" font-size="10.00" fill="#000000">B</text>
</g>
<!-- 4381189008&#45;&gt;4381189120 -->
<g id="edge3" class="edge">
<title>4381189008&#45;&gt;4381189120</title>
<path fill="none" stroke="#c0c0c0" d="M27.532,-77.9065C28.2416,-76.3689 28.9884,-74.7509 29.7272,-73.1502"/>
<polygon fill="#c0c0c0" stroke="#c0c0c0" points="30.7348,-73.4725 31.0387,-70.3086 28.8281,-72.5924 30.7348,-73.4725"/>
</g>
<!-- 4381189176 -->
<g id="node5" class="node">
<title>4381189176</title>
<polygon fill="#dbdb8d" stroke="transparent" points="50.7866,-44 19.8834,-44 19.8834,-26 50.7866,-26 50.7866,-44"/>
<text text-anchor="middle" x="35.335" y="-32" font-family="sans" font-size="10.00" fill="#000000">B.y</text>
</g>
<!-- 4381189120&#45;&gt;4381189176 -->
<g id="edge4" class="edge">
<title>4381189120&#45;&gt;4381189176</title>
<path fill="none" stroke="#c0c0c0" d="M35.335,-51.9065C35.335,-50.5226 35.335,-49.0737 35.335,-47.6308"/>
<polygon fill="#c0c0c0" stroke="#c0c0c0" points="36.3851,-47.3085 35.335,-44.3086 34.2851,-47.3086 36.3851,-47.3085"/>
</g>
<!-- 4381189232 -->
<g id="node6" class="node">
<title>4381189232</title>
<polygon fill="#eeeeee" stroke="transparent" points="46.5073,-18 24.1627,-18 24.1627,0 46.5073,0 46.5073,-18"/>
<text text-anchor="middle" x="35.335" y="-6" font-family="sans" font-size="10.00" fill="#000000">Y</text>
</g>
<!-- 4381189176&#45;&gt;4381189232 -->
<g id="edge5" class="edge">
<title>4381189176&#45;&gt;4381189232</title>
<path fill="none" stroke="#c0c0c0" d="M35.335,-25.9065C35.335,-24.5226 35.335,-23.0737 35.335,-21.6308"/>
<polygon fill="#c0c0c0" stroke="#c0c0c0" points="36.3851,-21.3085 35.335,-18.3086 34.2851,-21.3086 36.3851,-21.3085"/>
</g>
</g>
</svg>
