<?xml version="1.0" encoding="UTF-8" standalone="no"?>
<!DOCTYPE svg PUBLIC "-//W3C//DTD SVG 1.1//EN"
 "http://www.w3.org/Graphics/SVG/1.1/DTD/svg11.dtd">
<!-- Generated by graphviz version 2.40.1 (20161225.0304)
 -->
<!-- Title: G Pages: 1 -->
<svg width="198pt" height="182pt"
 viewBox="0.00 0.00 197.63 182.00" xmlns="http://www.w3.org/2000/svg" xmlns:xlink="http://www.w3.org/1999/xlink">
<g id="graph0" class="graph" transform="scale(1 1) rotate(0) translate(4 178)">
<title>G</title>
<polygon fill="#ffffff" stroke="transparent" points="-4,4 -4,-178 193.6279,-178 193.6279,4 -4,4"/>
<!-- 0 -->
<g id="node1" class="node">
<title>0</title>
<polygon fill="#dbdb8d" stroke="transparent" points="83.7319,-174 47.8296,-174 47.8296,-156 83.7319,-156 83.7319,-174"/>
<text text-anchor="middle" x="65.7808" y="-162" font-family="sans" font-size="10.00" fill="#000000">Item</text>
</g>
<!-- 1 -->
<g id="node2" class="node">
<title>1</title>
<polygon fill="#aec7e8" stroke="transparent" points="80.0648,-148 51.4967,-148 51.4967,-130 80.0648,-130 80.0648,-148"/>
<text text-anchor="middle" x="65.7808" y="-136" font-family="sans" font-size="10.00" fill="#000000">R1</text>
</g>
<!-- 0&#45;&gt;1 -->
<g id="edge1" class="edge">
<title>0&#45;&gt;1</title>
<path fill="none" stroke="#c0c0c0" d="M65.7808,-155.9065C65.7808,-154.5226 65.7808,-153.0737 65.7808,-151.6308"/>
<polygon fill="#c0c0c0" stroke="#c0c0c0" points="66.8309,-151.3085 65.7808,-148.3086 64.7309,-151.3086 66.8309,-151.3085"/>
</g>
<!-- 2 -->
<g id="node3" class="node">
<title>2</title>
<polygon fill="#dbdb8d" stroke="transparent" points="59.7319,-122 23.8296,-122 23.8296,-104 59.7319,-104 59.7319,-122"/>
<text text-anchor="middle" x="41.7808" y="-110" font-family="sans" font-size="10.00" fill="#000000">Item</text>
</g>
<!-- 1&#45;&gt;2 -->
<g id="edge2" class="edge">
<title>1&#45;&gt;2</title>
<path fill="none" stroke="#c0c0c0" d="M57.3867,-129.9065C55.8255,-128.2151 54.1744,-126.4265 52.5536,-124.6705"/>
<polygon fill="#c0c0c0" stroke="#c0c0c0" points="53.1797,-123.8008 50.3733,-122.3086 51.6366,-125.2252 53.1797,-123.8008"/>
</g>
<!-- 9 -->
<g id="node10" class="node">
<title>9</title>
<polygon fill="#dbdb8d" stroke="transparent" points="120.471,-122 63.0905,-122 63.0905,-104 120.471,-104 120.471,-122"/>
<text text-anchor="middle" x="91.7808" y="-110" font-family="sans" font-size="10.00" fill="#000000">Item.date</text>
</g>
<!-- 1&#45;&gt;9 -->
<g id="edge3" class="edge">
<title>1&#45;&gt;9</title>
<path fill="none" stroke="#c0c0c0" d="M74.8743,-129.9065C76.5657,-128.2151 78.3543,-126.4265 80.1102,-124.6705"/>
<polygon fill="#c0c0c0" stroke="#c0c0c0" points="81.0933,-125.1724 82.4722,-122.3086 79.6084,-123.6874 81.0933,-125.1724"/>
</g>
<!-- 3 -->
<g id="node4" class="node">
<title>3</title>
<polygon fill="#aec7e8" stroke="transparent" points="52.0648,-96 23.4967,-96 23.4967,-78 52.0648,-78 52.0648,-96"/>
<text text-anchor="middle" x="37.7808" y="-84" font-family="sans" font-size="10.00" fill="#000000">R1</text>
</g>
<!-- 2&#45;&gt;3 -->
<g id="edge4" class="edge">
<title>2&#45;&gt;3</title>
<path fill="none" stroke="#c0c0c0" d="M40.3818,-103.9065C40.1689,-102.5226 39.9459,-101.0737 39.724,-99.6308"/>
<polygon fill="#c0c0c0" stroke="#c0c0c0" points="40.7069,-99.114 39.2128,-96.3086 38.6313,-99.4334 40.7069,-99.114"/>
</g>
<!-- 4 -->
<g id="node5" class="node">
<title>4</title>
<polygon fill="#dbdb8d" stroke="transparent" points="63.5693,-70 9.9923,-70 9.9923,-52 63.5693,-52 63.5693,-70"/>
<text text-anchor="middle" x="36.7808" y="-58" font-family="sans" font-size="10.00" fill="#000000">Item.title</text>
</g>
<!-- 3&#45;&gt;4 -->
<g id="edge5" class="edge">
<title>3&#45;&gt;4</title>
<path fill="none" stroke="#c0c0c0" d="M37.431,-77.9065C37.3778,-76.5226 37.3221,-75.0737 37.2666,-73.6308"/>
<polygon fill="#c0c0c0" stroke="#c0c0c0" points="38.3034,-73.266 37.1388,-70.3086 36.2049,-73.3467 38.3034,-73.266"/>
</g>
<!-- 5 -->
<g id="node6" class="node">
<title>5</title>
<polygon fill="#eeeeee" stroke="transparent" points="21.3467,-44 .2149,-44 .2149,-26 21.3467,-26 21.3467,-44"/>
<text text-anchor="middle" x="10.7808" y="-32" font-family="sans" font-size="10.00" fill="#000000">«</text>
</g>
<!-- 4&#45;&gt;5 -->
<g id="edge6" class="edge">
<title>4&#45;&gt;5</title>
<path fill="none" stroke="#c0c0c0" d="M27.6872,-51.9065C25.9959,-50.2151 24.2072,-48.4265 22.4513,-46.6705"/>
<polygon fill="#c0c0c0" stroke="#c0c0c0" points="22.9532,-45.6874 20.0893,-44.3086 21.4682,-47.1724 22.9532,-45.6874"/>
</g>
<!-- 6 -->
<g id="node7" class="node">
<title>6</title>
<polygon fill="#aec7e8" stroke="transparent" points="51.0648,-44 22.4967,-44 22.4967,-26 51.0648,-26 51.0648,-44"/>
<text text-anchor="middle" x="36.7808" y="-32" font-family="sans" font-size="10.00" fill="#000000">R4</text>
</g>
<!-- 4&#45;&gt;6 -->
<g id="edge7" class="edge">
<title>4&#45;&gt;6</title>
<path fill="none" stroke="#c0c0c0" d="M36.7808,-51.9065C36.7808,-50.5226 36.7808,-49.0737 36.7808,-47.6308"/>
<polygon fill="#c0c0c0" stroke="#c0c0c0" points="37.8309,-47.3085 36.7808,-44.3086 35.7309,-47.3086 37.8309,-47.3085"/>
</g>
<!-- 8 -->
<g id="node9" class="node">
<title>8</title>
<polygon fill="#eeeeee" stroke="transparent" points="73.3467,-44 52.2149,-44 52.2149,-26 73.3467,-26 73.3467,-44"/>
<text text-anchor="middle" x="62.7808" y="-32" font-family="sans" font-size="10.00" fill="#000000">»</text>
</g>
<!-- 4&#45;&gt;8 -->
<g id="edge8" class="edge">
<title>4&#45;&gt;8</title>
<path fill="none" stroke="#c0c0c0" d="M45.8743,-51.9065C47.5657,-50.2151 49.3543,-48.4265 51.1102,-46.6705"/>
<polygon fill="#c0c0c0" stroke="#c0c0c0" points="52.0933,-47.1724 53.4722,-44.3086 50.6084,-45.6874 52.0933,-47.1724"/>
</g>
<!-- 7 -->
<g id="node8" class="node">
<title>7</title>
<polygon fill="#eeeeee" stroke="transparent" points="68.4539,-18 5.1077,-18 5.1077,0 68.4539,0 68.4539,-18"/>
<text text-anchor="middle" x="36.7808" y="-6" font-family="sans" font-size="10.00" fill="#000000">Каштанка</text>
</g>
<!-- 6&#45;&gt;7 -->
<g id="edge9" class="edge">
<title>6&#45;&gt;7</title>
<path fill="none" stroke="#c0c0c0" d="M36.7808,-25.9065C36.7808,-24.5226 36.7808,-23.0737 36.7808,-21.6308"/>
<polygon fill="#c0c0c0" stroke="#c0c0c0" points="37.8309,-21.3085 36.7808,-18.3086 35.7309,-21.3086 37.8309,-21.3085"/>
</g>
<!-- 10 -->
<g id="node11" class="node">
<title>10</title>
<polygon fill="#dbdb8d" stroke="transparent" points="111.404,-96 74.1575,-96 74.1575,-78 111.404,-78 111.404,-96"/>
<text text-anchor="middle" x="92.7808" y="-84" font-family="sans" font-size="10.00" fill="#000000">Date</text>
</g>
<!-- 9&#45;&gt;10 -->
<g id="edge10" class="edge">
<title>9&#45;&gt;10</title>
<path fill="none" stroke="#c0c0c0" d="M92.1305,-103.9065C92.1837,-102.5226 92.2395,-101.0737 92.295,-99.6308"/>
<polygon fill="#c0c0c0" stroke="#c0c0c0" points="93.3566,-99.3467 92.4227,-96.3086 91.2581,-99.266 93.3566,-99.3467"/>
</g>
<!-- 11 -->
<g id="node12" class="node">
<title>11</title>
<polygon fill="#dbdb8d" stroke="transparent" points="120.8052,-70 64.7563,-70 64.7563,-52 120.8052,-52 120.8052,-70"/>
<text text-anchor="middle" x="92.7808" y="-58" font-family="sans" font-size="10.00" fill="#000000">Date.day</text>
</g>
<!-- 10&#45;&gt;11 -->
<g id="edge11" class="edge">
<title>10&#45;&gt;11</title>
<path fill="none" stroke="#c0c0c0" d="M92.7808,-77.9065C92.7808,-76.5226 92.7808,-75.0737 92.7808,-73.6308"/>
<polygon fill="#c0c0c0" stroke="#c0c0c0" points="93.8309,-73.3085 92.7808,-70.3086 91.7309,-73.3086 93.8309,-73.3085"/>
</g>
<!-- 13 -->
<g id="node14" class="node">
<title>13</title>
<polygon fill="#dbdb8d" stroke="transparent" points="189.4758,-70 122.0857,-70 122.0857,-52 189.4758,-52 189.4758,-70"/>
<text text-anchor="middle" x="155.7808" y="-58" font-family="sans" font-size="10.00" fill="#000000">Date.month</text>
</g>
<!-- 10&#45;&gt;13 -->
<g id="edge12" class="edge">
<title>10&#45;&gt;13</title>
<path fill="none" stroke="#c0c0c0" d="M111.6828,-79.1991C117.6631,-76.7311 124.3687,-73.9637 130.7111,-71.3462"/>
<polygon fill="#c0c0c0" stroke="#c0c0c0" points="131.4181,-72.1904 133.7906,-70.0753 130.6169,-70.2492 131.4181,-72.1904"/>
</g>
<!-- 12 -->
<g id="node13" class="node">
<title>12</title>
<polygon fill="#eeeeee" stroke="transparent" points="106.4041,-44 79.1574,-44 79.1574,-26 106.4041,-26 106.4041,-44"/>
<text text-anchor="middle" x="92.7808" y="-32" font-family="sans" font-size="10.00" fill="#000000">18</text>
</g>
<!-- 11&#45;&gt;12 -->
<g id="edge13" class="edge">
<title>11&#45;&gt;12</title>
<path fill="none" stroke="#c0c0c0" d="M92.7808,-51.9065C92.7808,-50.5226 92.7808,-49.0737 92.7808,-47.6308"/>
<polygon fill="#c0c0c0" stroke="#c0c0c0" points="93.8309,-47.3085 92.7808,-44.3086 91.7309,-47.3086 93.8309,-47.3085"/>
</g>
<!-- 14 -->
<g id="node15" class="node">
<title>14</title>
<polygon fill="#eeeeee" stroke="transparent" points="176.0373,-44 135.5242,-44 135.5242,-26 176.0373,-26 176.0373,-44"/>
<text text-anchor="middle" x="155.7808" y="-32" font-family="sans" font-size="10.00" fill="#000000">июня</text>
</g>
<!-- 13&#45;&gt;14 -->
<g id="edge14" class="edge">
<title>13&#45;&gt;14</title>
<path fill="none" stroke="#c0c0c0" d="M155.7808,-51.9065C155.7808,-50.5226 155.7808,-49.0737 155.7808,-47.6308"/>
<polygon fill="#c0c0c0" stroke="#c0c0c0" points="156.8309,-47.3085 155.7808,-44.3086 154.7309,-47.3086 156.8309,-47.3085"/>
</g>
</g>
</svg>
