<?xml version="1.0" encoding="UTF-8" standalone="no"?>
<!DOCTYPE svg PUBLIC "-//W3C//DTD SVG 1.1//EN"
 "http://www.w3.org/Graphics/SVG/1.1/DTD/svg11.dtd">
<!-- Generated by graphviz version 2.40.1 (20161225.0304)
 -->
<!-- Title: 4381069384 Pages: 1 -->
<svg width="100pt" height="78pt"
 viewBox="0.00 0.00 100.45 78.00" xmlns="http://www.w3.org/2000/svg" xmlns:xlink="http://www.w3.org/1999/xlink">
<g id="graph0" class="graph" transform="scale(1 1) rotate(0) translate(4 74)">
<title>4381069384</title>
<polygon fill="#ffffff" stroke="transparent" points="-4,4 -4,-74 96.4482,-74 96.4482,4 -4,4"/>
<!-- 4381191808 -->
<g id="node1" class="node">
<title>4381191808</title>
<polygon fill="#dbdb8d" stroke="transparent" points="57.3964,-70 35.0518,-70 35.0518,-52 57.3964,-52 57.3964,-70"/>
<text text-anchor="middle" x="46.2241" y="-58" font-family="sans" font-size="10.00" fill="#000000">A</text>
</g>
<!-- 4381191360 -->
<g id="node2" class="node">
<title>4381191360</title>
<polygon fill="#dbdb8d" stroke="transparent" points="30.6757,-44 -.2275,-44 -.2275,-26 30.6757,-26 30.6757,-44"/>
<text text-anchor="middle" x="15.2241" y="-32" font-family="sans" font-size="10.00" fill="#000000">A.x</text>
</g>
<!-- 4381191808&#45;&gt;4381191360 -->
<g id="edge1" class="edge">
<title>4381191808&#45;&gt;4381191360</title>
<path fill="none" stroke="#c0c0c0" d="M35.3818,-51.9065C33.2735,-50.1382 31.0385,-48.2637 28.8538,-46.4313"/>
<polygon fill="#c0c0c0" stroke="#c0c0c0" points="29.2962,-45.4319 26.3228,-44.3086 27.9466,-47.041 29.2962,-45.4319"/>
</g>
<!-- 4381191472 -->
<g id="node4" class="node">
<title>4381191472</title>
<polygon fill="#dbdb8d" stroke="transparent" points="61.6757,-44 30.7725,-44 30.7725,-26 61.6757,-26 61.6757,-44"/>
<text text-anchor="middle" x="46.2241" y="-32" font-family="sans" font-size="10.00" fill="#000000">A.x</text>
</g>
<!-- 4381191808&#45;&gt;4381191472 -->
<g id="edge2" class="edge">
<title>4381191808&#45;&gt;4381191472</title>
<path fill="none" stroke="#c0c0c0" d="M46.2241,-51.9065C46.2241,-50.5226 46.2241,-49.0737 46.2241,-47.6308"/>
<polygon fill="#c0c0c0" stroke="#c0c0c0" points="47.2742,-47.3085 46.2241,-44.3086 45.1742,-47.3086 47.2742,-47.3085"/>
</g>
<!-- 4381191864 -->
<g id="node6" class="node">
<title>4381191864</title>
<polygon fill="#dbdb8d" stroke="transparent" points="92.6757,-44 61.7725,-44 61.7725,-26 92.6757,-26 92.6757,-44"/>
<text text-anchor="middle" x="77.2241" y="-32" font-family="sans" font-size="10.00" fill="#000000">A.x</text>
</g>
<!-- 4381191808&#45;&gt;4381191864 -->
<g id="edge3" class="edge">
<title>4381191808&#45;&gt;4381191864</title>
<path fill="none" stroke="#c0c0c0" d="M57.0664,-51.9065C59.1747,-50.1382 61.4097,-48.2637 63.5945,-46.4313"/>
<polygon fill="#c0c0c0" stroke="#c0c0c0" points="64.5016,-47.041 66.1254,-44.3086 63.1521,-45.4319 64.5016,-47.041"/>
</g>
<!-- 4381191752 -->
<g id="node3" class="node">
<title>4381191752</title>
<polygon fill="#eeeeee" stroke="transparent" points="25.79,-18 4.6582,-18 4.6582,0 25.79,0 25.79,-18"/>
<text text-anchor="middle" x="15.2241" y="-6" font-family="sans" font-size="10.00" fill="#000000">1</text>
</g>
<!-- 4381191360&#45;&gt;4381191752 -->
<g id="edge4" class="edge">
<title>4381191360&#45;&gt;4381191752</title>
<path fill="none" stroke="#c0c0c0" d="M15.2241,-25.9065C15.2241,-24.5226 15.2241,-23.0737 15.2241,-21.6308"/>
<polygon fill="#c0c0c0" stroke="#c0c0c0" points="16.2742,-21.3085 15.2241,-18.3086 14.1742,-21.3086 16.2742,-21.3085"/>
</g>
<!-- 4381192088 -->
<g id="node5" class="node">
<title>4381192088</title>
<polygon fill="#eeeeee" stroke="transparent" points="56.79,-18 35.6582,-18 35.6582,0 56.79,0 56.79,-18"/>
<text text-anchor="middle" x="46.2241" y="-6" font-family="sans" font-size="10.00" fill="#000000">2</text>
</g>
<!-- 4381191472&#45;&gt;4381192088 -->
<g id="edge5" class="edge">
<title>4381191472&#45;&gt;4381192088</title>
<path fill="none" stroke="#c0c0c0" d="M46.2241,-25.9065C46.2241,-24.5226 46.2241,-23.0737 46.2241,-21.6308"/>
<polygon fill="#c0c0c0" stroke="#c0c0c0" points="47.2742,-21.3085 46.2241,-18.3086 45.1742,-21.3086 47.2742,-21.3085"/>
</g>
<!-- 4381220992 -->
<g id="node7" class="node">
<title>4381220992</title>
<polygon fill="#eeeeee" stroke="transparent" points="87.79,-18 66.6582,-18 66.6582,0 87.79,0 87.79,-18"/>
<text text-anchor="middle" x="77.2241" y="-6" font-family="sans" font-size="10.00" fill="#000000">3</text>
</g>
<!-- 4381191864&#45;&gt;4381220992 -->
<g id="edge6" class="edge">
<title>4381191864&#45;&gt;4381220992</title>
<path fill="none" stroke="#c0c0c0" d="M77.2241,-25.9065C77.2241,-24.5226 77.2241,-23.0737 77.2241,-21.6308"/>
<polygon fill="#c0c0c0" stroke="#c0c0c0" points="78.2742,-21.3085 77.2241,-18.3086 76.1742,-21.3086 78.2742,-21.3085"/>
</g>
</g>
</svg>
