<?xml version="1.0" encoding="UTF-8" standalone="no"?>
<!DOCTYPE svg PUBLIC "-//W3C//DTD SVG 1.1//EN"
 "http://www.w3.org/Graphics/SVG/1.1/DTD/svg11.dtd">
<!-- Generated by graphviz version 2.40.1 (20161225.0304)
 -->
<!-- Title: 4381185976 Pages: 1 -->
<svg width="38pt" height="104pt"
 viewBox="0.00 0.00 38.45 104.00" xmlns="http://www.w3.org/2000/svg" xmlns:xlink="http://www.w3.org/1999/xlink">
<g id="graph0" class="graph" transform="scale(1 1) rotate(0) translate(4 100)">
<title>4381185976</title>
<polygon fill="#ffffff" stroke="transparent" points="-4,4 -4,-100 34.4482,-100 34.4482,4 -4,4"/>
<!-- 4381072632 -->
<g id="node1" class="node">
<title>4381072632</title>
<polygon fill="#dbdb8d" stroke="transparent" points="26.3964,-96 4.0518,-96 4.0518,-78 26.3964,-78 26.3964,-96"/>
<text text-anchor="middle" x="15.2241" y="-84" font-family="sans" font-size="10.00" fill="#000000">A</text>
</g>
<!-- 4381072352 -->
<g id="node2" class="node">
<title>4381072352</title>
<polygon fill="#dbdb8d" stroke="transparent" points="30.6757,-70 -.2275,-70 -.2275,-52 30.6757,-52 30.6757,-70"/>
<text text-anchor="middle" x="15.2241" y="-58" font-family="sans" font-size="10.00" fill="#000000">A.y</text>
</g>
<!-- 4381072632&#45;&gt;4381072352 -->
<g id="edge1" class="edge">
<title>4381072632&#45;&gt;4381072352</title>
<path fill="none" stroke="#c0c0c0" d="M15.2241,-77.9065C15.2241,-76.5226 15.2241,-75.0737 15.2241,-73.6308"/>
<polygon fill="#c0c0c0" stroke="#c0c0c0" points="16.2742,-73.3085 15.2241,-70.3086 14.1742,-73.3086 16.2742,-73.3085"/>
</g>
<!-- 4381070560 -->
<g id="node3" class="node">
<title>4381070560</title>
<polygon fill="#dbdb8d" stroke="transparent" points="30.6757,-44 -.2275,-44 -.2275,-26 30.6757,-26 30.6757,-44"/>
<text text-anchor="middle" x="15.2241" y="-32" font-family="sans" font-size="10.00" fill="#000000">A.x</text>
</g>
<!-- 4381072352&#45;&gt;4381070560 -->
<g id="edge2" class="edge">
<title>4381072352&#45;&gt;4381070560</title>
<path fill="none" stroke="#c0c0c0" d="M15.2241,-51.9065C15.2241,-50.5226 15.2241,-49.0737 15.2241,-47.6308"/>
<polygon fill="#c0c0c0" stroke="#c0c0c0" points="16.2742,-47.3085 15.2241,-44.3086 14.1742,-47.3086 16.2742,-47.3085"/>
</g>
<!-- 4381069384 -->
<g id="node4" class="node">
<title>4381069384</title>
<polygon fill="#eeeeee" stroke="transparent" points="26.3964,-18 4.0518,-18 4.0518,0 26.3964,0 26.3964,-18"/>
<text text-anchor="middle" x="15.2241" y="-6" font-family="sans" font-size="10.00" fill="#000000">X</text>
</g>
<!-- 4381070560&#45;&gt;4381069384 -->
<g id="edge3" class="edge">
<title>4381070560&#45;&gt;4381069384</title>
<path fill="none" stroke="#c0c0c0" d="M15.2241,-25.9065C15.2241,-24.5226 15.2241,-23.0737 15.2241,-21.6308"/>
<polygon fill="#c0c0c0" stroke="#c0c0c0" points="16.2742,-21.3085 15.2241,-18.3086 14.1742,-21.3086 16.2742,-21.3085"/>
</g>
</g>
</svg>
