<?xml version="1.0" encoding="UTF-8" standalone="no"?>
<!DOCTYPE svg PUBLIC "-//W3C//DTD SVG 1.1//EN"
 "http://www.w3.org/Graphics/SVG/1.1/DTD/svg11.dtd">
<!-- Generated by graphviz version 2.40.1 (20161225.0304)
 -->
<!-- Title: G Pages: 1 -->
<svg width="179pt" height="104pt"
 viewBox="0.00 0.00 178.69 104.00" xmlns="http://www.w3.org/2000/svg" xmlns:xlink="http://www.w3.org/1999/xlink">
<g id="graph0" class="graph" transform="scale(1 1) rotate(0) translate(4 100)">
<title>G</title>
<polygon fill="#ffffff" stroke="transparent" points="-4,4 -4,-100 174.6895,-100 174.6895,4 -4,4"/>
<!-- 0 -->
<g id="node1" class="node">
<title>0</title>
<polygon fill="#dbdb8d" stroke="transparent" points="109.6355,-96 72.389,-96 72.389,-78 109.6355,-78 109.6355,-96"/>
<text text-anchor="middle" x="91.0122" y="-84" font-family="sans" font-size="10.00" fill="#000000">Date</text>
</g>
<!-- 1 -->
<g id="node2" class="node">
<title>1</title>
<polygon fill="#dbdb8d" stroke="transparent" points="56.0366,-70 -.0122,-70 -.0122,-52 56.0366,-52 56.0366,-70"/>
<text text-anchor="middle" x="28.0122" y="-58" font-family="sans" font-size="10.00" fill="#000000">Date.day</text>
</g>
<!-- 0&#45;&gt;1 -->
<g id="edge1" class="edge">
<title>0&#45;&gt;1</title>
<path fill="none" stroke="#c0c0c0" d="M72.1101,-79.1991C66.1298,-76.7311 59.4242,-73.9637 53.0819,-71.3462"/>
<polygon fill="#c0c0c0" stroke="#c0c0c0" points="53.176,-70.2492 50.0023,-70.0753 52.3749,-72.1904 53.176,-70.2492"/>
</g>
<!-- 3 -->
<g id="node4" class="node">
<title>3</title>
<polygon fill="#dbdb8d" stroke="transparent" points="124.7072,-70 57.3172,-70 57.3172,-52 124.7072,-52 124.7072,-70"/>
<text text-anchor="middle" x="91.0122" y="-58" font-family="sans" font-size="10.00" fill="#000000">Date.month</text>
</g>
<!-- 0&#45;&gt;3 -->
<g id="edge2" class="edge">
<title>0&#45;&gt;3</title>
<path fill="none" stroke="#c0c0c0" d="M91.0122,-77.9065C91.0122,-76.5226 91.0122,-75.0737 91.0122,-73.6308"/>
<polygon fill="#c0c0c0" stroke="#c0c0c0" points="92.0623,-73.3085 91.0122,-70.3086 89.9623,-73.3086 92.0623,-73.3085"/>
</g>
<!-- 5 -->
<g id="node6" class="node">
<title>5</title>
<polygon fill="#aec7e8" stroke="transparent" points="155.2962,-70 126.7282,-70 126.7282,-52 155.2962,-52 155.2962,-70"/>
<text text-anchor="middle" x="141.0122" y="-58" font-family="sans" font-size="10.00" fill="#000000">R3</text>
</g>
<!-- 0&#45;&gt;5 -->
<g id="edge3" class="edge">
<title>0&#45;&gt;5</title>
<path fill="none" stroke="#c0c0c0" d="M108.4998,-77.9065C113.4421,-75.3365 118.8162,-72.5419 123.7454,-69.9787"/>
<polygon fill="#c0c0c0" stroke="#c0c0c0" points="124.2553,-70.8971 126.4325,-68.5814 123.2864,-69.034 124.2553,-70.8971"/>
</g>
<!-- 2 -->
<g id="node3" class="node">
<title>2</title>
<polygon fill="#eeeeee" stroke="transparent" points="41.6355,-44 14.3889,-44 14.3889,-26 41.6355,-26 41.6355,-44"/>
<text text-anchor="middle" x="28.0122" y="-32" font-family="sans" font-size="10.00" fill="#000000">18</text>
</g>
<!-- 1&#45;&gt;2 -->
<g id="edge4" class="edge">
<title>1&#45;&gt;2</title>
<path fill="none" stroke="#c0c0c0" d="M28.0122,-51.9065C28.0122,-50.5226 28.0122,-49.0737 28.0122,-47.6308"/>
<polygon fill="#c0c0c0" stroke="#c0c0c0" points="29.0623,-47.3085 28.0122,-44.3086 26.9623,-47.3086 29.0623,-47.3085"/>
</g>
<!-- 4 -->
<g id="node5" class="node">
<title>4</title>
<polygon fill="#eeeeee" stroke="transparent" points="110.4488,-44 69.5756,-44 69.5756,-26 110.4488,-26 110.4488,-44"/>
<text text-anchor="middle" x="90.0122" y="-32" font-family="sans" font-size="10.00" fill="#000000">июля</text>
</g>
<!-- 3&#45;&gt;4 -->
<g id="edge5" class="edge">
<title>3&#45;&gt;4</title>
<path fill="none" stroke="#c0c0c0" d="M90.6625,-51.9065C90.6092,-50.5226 90.5535,-49.0737 90.498,-47.6308"/>
<polygon fill="#c0c0c0" stroke="#c0c0c0" points="91.5348,-47.266 90.3702,-44.3086 89.4364,-47.3467 91.5348,-47.266"/>
</g>
<!-- 6 -->
<g id="node7" class="node">
<title>6</title>
<polygon fill="#dbdb8d" stroke="transparent" points="170.8678,-44 111.1566,-44 111.1566,-26 170.8678,-26 170.8678,-44"/>
<text text-anchor="middle" x="141.0122" y="-32" font-family="sans" font-size="10.00" fill="#000000">Date.year</text>
</g>
<!-- 5&#45;&gt;6 -->
<g id="edge6" class="edge">
<title>5&#45;&gt;6</title>
<path fill="none" stroke="#c0c0c0" d="M141.0122,-51.9065C141.0122,-50.5226 141.0122,-49.0737 141.0122,-47.6308"/>
<polygon fill="#c0c0c0" stroke="#c0c0c0" points="142.0623,-47.3085 141.0122,-44.3086 139.9623,-47.3086 142.0623,-47.3085"/>
</g>
<!-- 7 -->
<g id="node8" class="node">
<title>7</title>
<polygon fill="#eeeeee" stroke="transparent" points="160.2591,-18 121.7653,-18 121.7653,0 160.2591,0 160.2591,-18"/>
<text text-anchor="middle" x="141.0122" y="-6" font-family="sans" font-size="10.00" fill="#000000">2016</text>
</g>
<!-- 6&#45;&gt;7 -->
<g id="edge7" class="edge">
<title>6&#45;&gt;7</title>
<path fill="none" stroke="#c0c0c0" d="M141.0122,-25.9065C141.0122,-24.5226 141.0122,-23.0737 141.0122,-21.6308"/>
<polygon fill="#c0c0c0" stroke="#c0c0c0" points="142.0623,-21.3085 141.0122,-18.3086 139.9623,-21.3086 142.0623,-21.3085"/>
</g>
</g>
</svg>
