<?xml version="1.0" encoding="UTF-8" standalone="no"?>
<!DOCTYPE svg PUBLIC "-//W3C//DTD SVG 1.1//EN"
 "http://www.w3.org/Graphics/SVG/1.1/DTD/svg11.dtd">
<!-- Generated by graphviz version 2.40.1 (20161225.0304)
 -->
<!-- Title: G Pages: 1 -->
<svg width="133pt" height="78pt"
 viewBox="0.00 0.00 132.86 78.00" xmlns="http://www.w3.org/2000/svg" xmlns:xlink="http://www.w3.org/1999/xlink">
<g id="graph0" class="graph" transform="scale(1 1) rotate(0) translate(4 74)">
<title>G</title>
<polygon fill="#ffffff" stroke="transparent" points="-4,4 -4,-74 128.8594,-74 128.8594,4 -4,4"/>
<!-- 0 -->
<g id="node1" class="node">
<title>0</title>
<polygon fill="#dbdb8d" stroke="transparent" points="77.6355,-70 40.389,-70 40.389,-52 77.6355,-52 77.6355,-70"/>
<text text-anchor="middle" x="59.0122" y="-58" font-family="sans" font-size="10.00" fill="#000000">Date</text>
</g>
<!-- 1 -->
<g id="node2" class="node">
<title>1</title>
<polygon fill="#dbdb8d" stroke="transparent" points="56.0366,-44 -.0122,-44 -.0122,-26 56.0366,-26 56.0366,-44"/>
<text text-anchor="middle" x="28.0122" y="-32" font-family="sans" font-size="10.00" fill="#000000">Date.day</text>
</g>
<!-- 0&#45;&gt;1 -->
<g id="edge1" class="edge">
<title>0&#45;&gt;1</title>
<path fill="none" stroke="#c0c0c0" d="M48.1699,-51.9065C46.0616,-50.1382 43.8266,-48.2637 41.6419,-46.4313"/>
<polygon fill="#c0c0c0" stroke="#c0c0c0" points="42.0842,-45.4319 39.1109,-44.3086 40.7347,-47.041 42.0842,-45.4319"/>
</g>
<!-- 3 -->
<g id="node4" class="node">
<title>3</title>
<polygon fill="#dbdb8d" stroke="transparent" points="124.7072,-44 57.3172,-44 57.3172,-26 124.7072,-26 124.7072,-44"/>
<text text-anchor="middle" x="91.0122" y="-32" font-family="sans" font-size="10.00" fill="#000000">Date.month</text>
</g>
<!-- 0&#45;&gt;3 -->
<g id="edge2" class="edge">
<title>0&#45;&gt;3</title>
<path fill="none" stroke="#c0c0c0" d="M70.2043,-51.9065C72.3806,-50.1382 74.6877,-48.2637 76.9429,-46.4313"/>
<polygon fill="#c0c0c0" stroke="#c0c0c0" points="77.8893,-47.0153 79.5555,-44.3086 76.565,-45.3855 77.8893,-47.0153"/>
</g>
<!-- 2 -->
<g id="node3" class="node">
<title>2</title>
<polygon fill="#eeeeee" stroke="transparent" points="41.6355,-18 14.3889,-18 14.3889,0 41.6355,0 41.6355,-18"/>
<text text-anchor="middle" x="28.0122" y="-6" font-family="sans" font-size="10.00" fill="#000000">15</text>
</g>
<!-- 1&#45;&gt;2 -->
<g id="edge3" class="edge">
<title>1&#45;&gt;2</title>
<path fill="none" stroke="#c0c0c0" d="M28.0122,-25.9065C28.0122,-24.5226 28.0122,-23.0737 28.0122,-21.6308"/>
<polygon fill="#c0c0c0" stroke="#c0c0c0" points="29.0623,-21.3085 28.0122,-18.3086 26.9623,-21.3086 29.0623,-21.3085"/>
</g>
<!-- 4 -->
<g id="node5" class="node">
<title>4</title>
<polygon fill="#eeeeee" stroke="transparent" points="113.3583,-18 68.6661,-18 68.6661,0 113.3583,0 113.3583,-18"/>
<text text-anchor="middle" x="91.0122" y="-6" font-family="sans" font-size="10.00" fill="#000000">марта</text>
</g>
<!-- 3&#45;&gt;4 -->
<g id="edge4" class="edge">
<title>3&#45;&gt;4</title>
<path fill="none" stroke="#c0c0c0" d="M91.0122,-25.9065C91.0122,-24.5226 91.0122,-23.0737 91.0122,-21.6308"/>
<polygon fill="#c0c0c0" stroke="#c0c0c0" points="92.0623,-21.3085 91.0122,-18.3086 89.9623,-21.3086 92.0623,-21.3085"/>
</g>
</g>
</svg>
