<?xml version="1.0" encoding="UTF-8" standalone="no"?>
<!DOCTYPE svg PUBLIC "-//W3C//DTD SVG 1.1//EN"
 "http://www.w3.org/Graphics/SVG/1.1/DTD/svg11.dtd">
<!-- Generated by graphviz version 2.40.1 (20161225.0304)
 -->
<!-- Title: G Pages: 1 -->
<svg width="283pt" height="215pt"
 viewBox="0.00 0.00 283.48 215.00" xmlns="http://www.w3.org/2000/svg" xmlns:xlink="http://www.w3.org/1999/xlink">
<g id="graph0" class="graph" transform="scale(1 1) rotate(0) translate(4 211)">
<title>G</title>
<polygon fill="#ffffff" stroke="transparent" points="-4,4 -4,-211 279.4771,-211 279.4771,4 -4,4"/>
<!-- 0 -->
<g id="node1" class="node">
<title>0</title>
<polygon fill="#aec7e8" stroke="transparent" points="145.0457,-207 116.4777,-207 116.4777,-189 145.0457,-189 145.0457,-207"/>
<text text-anchor="middle" x="130.7617" y="-195" font-family="sans" font-size="10.00" fill="#000000">R0</text>
</g>
<!-- 1 -->
<g id="node2" class="node">
<title>1</title>
<polygon fill="#aec7e8" stroke="transparent" points="143.8618,-172 89.6616,-172 89.6616,-154 143.8618,-154 143.8618,-172"/>
<text text-anchor="middle" x="116.7617" y="-160" font-family="sans" font-size="10.00" fill="#000000">R1^case</text>
</g>
<!-- 0&#45;&gt;1 -->
<g id="edge1" class="edge">
<title>0&#45;&gt;1</title>
<path fill="none" stroke="#c0c0c0" d="M127.0834,-188.8042C125.3983,-184.5914 123.3788,-179.5428 121.5748,-175.0328"/>
<polygon fill="#c0c0c0" stroke="#c0c0c0" points="122.4562,-174.4088 120.3671,-172.0134 120.5064,-175.1888 122.4562,-174.4088"/>
</g>
<!-- 4 -->
<g id="node5" class="node">
<title>4</title>
<polygon fill="#dbdb8d" stroke="transparent" points="197.2537,-130 128.2697,-130 128.2697,-112 197.2537,-112 197.2537,-130"/>
<text text-anchor="middle" x="162.7617" y="-118" font-family="sans" font-size="10.00" fill="#000000">Name^case</text>
</g>
<!-- 0&#45;&gt;4 -->
<g id="edge2" class="edge">
<title>0&#45;&gt;4</title>
<path fill="none" stroke="#c0c0c0" d="M134.5582,-188.8647C140.332,-174.9716 151.3256,-148.518 157.7493,-133.0612"/>
<polygon fill="#c0c0c0" stroke="#c0c0c0" points="158.7884,-133.2967 158.9702,-130.1234 156.8492,-132.4907 158.7884,-133.2967"/>
</g>
<!-- 2 -->
<g id="node3" class="node">
<title>2</title>
<polygon fill="#eeeeee" stroke="transparent" points="57.2871,-130 .2363,-130 .2363,-112 57.2871,-112 57.2871,-130"/>
<text text-anchor="middle" x="28.7617" y="-118" font-family="sans" font-size="10.00" fill="#000000">главного</text>
</g>
<!-- 1&#45;&gt;2 -->
<g id="edge3" class="edge">
<title>1&#45;&gt;2</title>
<path fill="none" stroke="#c0c0c0" d="M97.667,-153.8866C83.829,-147.2821 65.0905,-138.3388 50.6477,-131.4456"/>
<polygon fill="#c0c0c0" stroke="#c0c0c0" points="50.9789,-130.4402 47.8191,-130.0956 50.0743,-132.3354 50.9789,-130.4402"/>
</g>
<!-- 3 -->
<g id="node4" class="node">
<title>3</title>
<polygon fill="#eeeeee" stroke="transparent" points="126.8411,-130 58.6823,-130 58.6823,-112 126.8411,-112 126.8411,-130"/>
<text text-anchor="middle" x="92.7617" y="-118" font-family="sans" font-size="10.00" fill="#000000">бухгалтера</text>
</g>
<!-- 1&#45;&gt;3 -->
<g id="edge4" class="edge">
<title>1&#45;&gt;3</title>
<path fill="none" stroke="#c0c0c0" d="M111.4353,-153.6788C107.9069,-147.5042 103.2499,-139.3543 99.4692,-132.7382"/>
<polygon fill="#c0c0c0" stroke="#c0c0c0" points="100.3086,-132.0906 97.9085,-130.0068 98.4853,-133.1325 100.3086,-132.0906"/>
</g>
<!-- 1&#45;&gt;4 -->
<g id="edge9" class="edge">
<title>1&#45;&gt;4</title>
<path fill="none" stroke="#c0c0c0" stroke-dasharray="5,2" d="M119.1463,-153.7802C120.8663,-148.6237 123.6417,-142.3737 127.8633,-138 130.8587,-134.8966 134.5376,-132.2824 138.371,-130.1068"/>
<text text-anchor="middle" x="137.2109" y="-139.6" font-family="sans" font-size="8.00" fill="#c0c0c0">case</text>
</g>
<!-- 5 -->
<g id="node6" class="node">
<title>5</title>
<polygon fill="#dbdb8d" stroke="transparent" points="184.7393,-95 6.7842,-95 6.7842,-77 184.7393,-77 184.7393,-95"/>
<text text-anchor="middle" x="95.7617" y="-83" font-family="sans" font-size="10.00" fill="#000000">Name.first.inflected(nomn, sing)^gnc</text>
</g>
<!-- 4&#45;&gt;5 -->
<g id="edge5" class="edge">
<title>4&#45;&gt;5</title>
<path fill="none" stroke="#c0c0c0" d="M145.5076,-111.9866C136.5123,-107.2876 125.4551,-101.5114 116.0514,-96.5991"/>
<polygon fill="#c0c0c0" stroke="#c0c0c0" points="116.3355,-95.5629 113.1903,-95.1045 115.3631,-97.4242 116.3355,-95.5629"/>
</g>
<!-- 7 -->
<g id="node8" class="node">
<title>7</title>
<polygon fill="#dbdb8d" stroke="transparent" points="275.6929,-53 97.8305,-53 97.8305,-35 275.6929,-35 275.6929,-53"/>
<text text-anchor="middle" x="186.7617" y="-41" font-family="sans" font-size="10.00" fill="#000000">Name.last.inflected(nomn, sing)^gnc</text>
</g>
<!-- 4&#45;&gt;7 -->
<g id="edge6" class="edge">
<title>4&#45;&gt;7</title>
<path fill="none" stroke="#c0c0c0" d="M171.52,-111.6138C175.3326,-106.9658 179.4504,-101.0594 181.7617,-95 186.5316,-82.495 187.4221,-67.0753 187.3455,-56.4848"/>
<polygon fill="#c0c0c0" stroke="#c0c0c0" points="188.3934,-56.344 187.2939,-53.3618 186.2937,-56.3787 188.3934,-56.344"/>
</g>
<!-- 6 -->
<g id="node7" class="node">
<title>6</title>
<polygon fill="#eeeeee" stroke="transparent" points="96.9417,-53 46.5817,-53 46.5817,-35 96.9417,-35 96.9417,-53"/>
<text text-anchor="middle" x="71.7617" y="-41" font-family="sans" font-size="10.00" fill="#000000">марину</text>
</g>
<!-- 5&#45;&gt;6 -->
<g id="edge7" class="edge">
<title>5&#45;&gt;6</title>
<path fill="none" stroke="#c0c0c0" d="M90.4353,-76.6788C86.9069,-70.5042 82.2499,-62.3543 78.4692,-55.7382"/>
<polygon fill="#c0c0c0" stroke="#c0c0c0" points="79.3086,-55.0906 76.9085,-53.0068 77.4853,-56.1325 79.3086,-55.0906"/>
</g>
<!-- 5&#45;&gt;7 -->
<g id="edge10" class="edge">
<title>5&#45;&gt;7</title>
<path fill="none" stroke="#c0c0c0" stroke-dasharray="5,2" d="M115.5074,-76.8866C130.7711,-69.8418 151.8006,-60.1359 167.0546,-53.0956"/>
<text text-anchor="middle" x="156.2109" y="-62.6" font-family="sans" font-size="8.00" fill="#c0c0c0">gnc</text>
</g>
<!-- 8 -->
<g id="node9" class="node">
<title>8</title>
<polygon fill="#eeeeee" stroke="transparent" points="213.2881,-18 160.2353,-18 160.2353,0 213.2881,0 213.2881,-18"/>
<text text-anchor="middle" x="186.7617" y="-6" font-family="sans" font-size="10.00" fill="#000000">игореву</text>
</g>
<!-- 7&#45;&gt;8 -->
<g id="edge8" class="edge">
<title>7&#45;&gt;8</title>
<path fill="none" stroke="#c0c0c0" d="M186.7617,-34.8042C186.7617,-30.5914 186.7617,-25.5428 186.7617,-21.0328"/>
<polygon fill="#c0c0c0" stroke="#c0c0c0" points="187.8118,-21.0133 186.7617,-18.0134 185.7118,-21.0134 187.8118,-21.0133"/>
</g>
</g>
</svg>
