<?xml version="1.0" encoding="UTF-8" standalone="no"?>
<!DOCTYPE svg PUBLIC "-//W3C//DTD SVG 1.1//EN"
 "http://www.w3.org/Graphics/SVG/1.1/DTD/svg11.dtd">
<!-- Generated by graphviz version 2.40.1 (20161225.0304)
 -->
<!-- Title: 4381184072 Pages: 1 -->
<svg width="243pt" height="78pt"
 viewBox="0.00 0.00 242.56 78.00" xmlns="http://www.w3.org/2000/svg" xmlns:xlink="http://www.w3.org/1999/xlink">
<g id="graph0" class="graph" transform="scale(1 1) rotate(0) translate(4 74)">
<title>4381184072</title>
<polygon fill="#ffffff" stroke="transparent" points="-4,4 -4,-74 238.5615,-74 238.5615,4 -4,4"/>
<!-- 4381150456 -->
<g id="node1" class="node">
<title>4381150456</title>
<polygon fill="#dbdb8d" stroke="transparent" points="125.7319,-70 89.8296,-70 89.8296,-52 125.7319,-52 125.7319,-70"/>
<text text-anchor="middle" x="107.7808" y="-58" font-family="sans" font-size="10.00" fill="#000000">Item</text>
</g>
<!-- 4381221048 -->
<g id="node2" class="node">
<title>4381221048</title>
<polygon fill="#dbdb8d" stroke="transparent" points="88.0692,-44 29.4923,-44 29.4923,-26 88.0692,-26 88.0692,-44"/>
<text text-anchor="middle" x="58.7808" y="-32" font-family="sans" font-size="10.00" fill="#000000">Item.titles</text>
</g>
<!-- 4381150456&#45;&gt;4381221048 -->
<g id="edge1" class="edge">
<title>4381150456&#45;&gt;4381221048</title>
<path fill="none" stroke="#c0c0c0" d="M90.6429,-51.9065C86.7861,-49.86 82.661,-47.6711 78.7013,-45.5701"/>
<polygon fill="#c0c0c0" stroke="#c0c0c0" points="79.134,-44.611 75.9917,-44.1324 78.1496,-46.4661 79.134,-44.611"/>
</g>
<!-- 4381295392 -->
<g id="node6" class="node">
<title>4381295392</title>
<polygon fill="#eeeeee" stroke="transparent" points="117.0604,-44 98.5011,-44 98.5011,-26 117.0604,-26 117.0604,-44"/>
<text text-anchor="middle" x="107.7808" y="-32" font-family="sans" font-size="10.00" fill="#000000">,</text>
</g>
<!-- 4381150456&#45;&gt;4381295392 -->
<g id="edge2" class="edge">
<title>4381150456&#45;&gt;4381295392</title>
<path fill="none" stroke="#c0c0c0" d="M107.7808,-51.9065C107.7808,-50.5226 107.7808,-49.0737 107.7808,-47.6308"/>
<polygon fill="#c0c0c0" stroke="#c0c0c0" points="108.8309,-47.3085 107.7808,-44.3086 106.7309,-47.3086 108.8309,-47.3085"/>
</g>
<!-- 4381220936 -->
<g id="node7" class="node">
<title>4381220936</title>
<polygon fill="#dbdb8d" stroke="transparent" points="181.0692,-44 122.4923,-44 122.4923,-26 181.0692,-26 181.0692,-44"/>
<text text-anchor="middle" x="151.7808" y="-32" font-family="sans" font-size="10.00" fill="#000000">Item.titles</text>
</g>
<!-- 4381150456&#45;&gt;4381220936 -->
<g id="edge3" class="edge">
<title>4381150456&#45;&gt;4381220936</title>
<path fill="none" stroke="#c0c0c0" d="M123.1698,-51.9065C126.4999,-49.9387 130.0527,-47.8393 133.482,-45.8129"/>
<polygon fill="#c0c0c0" stroke="#c0c0c0" points="134.2774,-46.5626 136.326,-44.1324 133.209,-44.7546 134.2774,-46.5626"/>
</g>
<!-- 4381295112 -->
<g id="node3" class="node">
<title>4381295112</title>
<polygon fill="#eeeeee" stroke="transparent" points="21.3467,-18 .2149,-18 .2149,0 21.3467,0 21.3467,-18"/>
<text text-anchor="middle" x="10.7808" y="-6" font-family="sans" font-size="10.00" fill="#000000">«</text>
</g>
<!-- 4381221048&#45;&gt;4381295112 -->
<g id="edge4" class="edge">
<title>4381221048&#45;&gt;4381295112</title>
<path fill="none" stroke="#c0c0c0" d="M40.5133,-25.8563C35.6894,-23.3692 30.5105,-20.6336 25.7808,-18 25.2634,-17.7119 24.7377,-17.4155 24.2082,-17.1137"/>
<polygon fill="#c0c0c0" stroke="#c0c0c0" points="24.6695,-16.1675 21.547,-15.5733 23.6174,-17.985 24.6695,-16.1675"/>
</g>
<!-- 4381295224 -->
<g id="node4" class="node">
<title>4381295224</title>
<polygon fill="#eeeeee" stroke="transparent" points="85.4539,-18 22.1077,-18 22.1077,0 85.4539,0 85.4539,-18"/>
<text text-anchor="middle" x="53.7808" y="-6" font-family="sans" font-size="10.00" fill="#000000">Каштанка</text>
</g>
<!-- 4381221048&#45;&gt;4381295224 -->
<g id="edge5" class="edge">
<title>4381221048&#45;&gt;4381295224</title>
<path fill="none" stroke="#c0c0c0" d="M57.032,-25.9065C56.7659,-24.5226 56.4872,-23.0737 56.2098,-21.6308"/>
<polygon fill="#c0c0c0" stroke="#c0c0c0" points="57.1686,-21.0563 55.5709,-18.3086 55.1064,-21.4529 57.1686,-21.0563"/>
</g>
<!-- 4381295280 -->
<g id="node5" class="node">
<title>4381295280</title>
<polygon fill="#eeeeee" stroke="transparent" points="107.3467,-18 86.2149,-18 86.2149,0 107.3467,0 107.3467,-18"/>
<text text-anchor="middle" x="96.7808" y="-6" font-family="sans" font-size="10.00" fill="#000000">»</text>
</g>
<!-- 4381221048&#45;&gt;4381295280 -->
<g id="edge6" class="edge">
<title>4381221048&#45;&gt;4381295280</title>
<path fill="none" stroke="#c0c0c0" d="M72.0713,-25.9065C75.8275,-23.3365 79.9118,-20.5419 83.658,-17.9787"/>
<polygon fill="#c0c0c0" stroke="#c0c0c0" points="84.3063,-18.8074 86.1893,-16.2468 83.1205,-17.0743 84.3063,-18.8074"/>
</g>
<!-- 4381295784 -->
<g id="node8" class="node">
<title>4381295784</title>
<polygon fill="#eeeeee" stroke="transparent" points="130.3467,-18 109.2149,-18 109.2149,0 130.3467,0 130.3467,-18"/>
<text text-anchor="middle" x="119.7808" y="-6" font-family="sans" font-size="10.00" fill="#000000">«</text>
</g>
<!-- 4381220936&#45;&gt;4381295784 -->
<g id="edge7" class="edge">
<title>4381220936&#45;&gt;4381295784</title>
<path fill="none" stroke="#c0c0c0" d="M140.5887,-25.9065C138.1015,-23.8856 135.4434,-21.7259 132.8873,-19.649"/>
<polygon fill="#c0c0c0" stroke="#c0c0c0" points="133.3657,-18.6849 130.3752,-17.608 132.0414,-20.3147 133.3657,-18.6849"/>
</g>
<!-- 4381295896 -->
<g id="node9" class="node">
<title>4381295896</title>
<polygon fill="#eeeeee" stroke="transparent" points="172.0148,-18 131.5467,-18 131.5467,0 172.0148,0 172.0148,-18"/>
<text text-anchor="middle" x="151.7808" y="-6" font-family="sans" font-size="10.00" fill="#000000">Дядя</text>
</g>
<!-- 4381220936&#45;&gt;4381295896 -->
<g id="edge8" class="edge">
<title>4381220936&#45;&gt;4381295896</title>
<path fill="none" stroke="#c0c0c0" d="M151.7808,-25.9065C151.7808,-24.5226 151.7808,-23.0737 151.7808,-21.6308"/>
<polygon fill="#c0c0c0" stroke="#c0c0c0" points="152.8309,-21.3085 151.7808,-18.3086 150.7309,-21.3086 152.8309,-21.3085"/>
</g>
<!-- 4381296064 -->
<g id="node10" class="node">
<title>4381296064</title>
<polygon fill="#eeeeee" stroke="transparent" points="212.6566,-18 172.9049,-18 172.9049,0 212.6566,0 212.6566,-18"/>
<text text-anchor="middle" x="192.7808" y="-6" font-family="sans" font-size="10.00" fill="#000000">Ваня</text>
</g>
<!-- 4381220936&#45;&gt;4381296064 -->
<g id="edge9" class="edge">
<title>4381220936&#45;&gt;4381296064</title>
<path fill="none" stroke="#c0c0c0" d="M166.1206,-25.9065C169.2236,-23.9387 172.5342,-21.8393 175.7297,-19.8129"/>
<polygon fill="#c0c0c0" stroke="#c0c0c0" points="176.4085,-20.6258 178.3797,-18.1324 175.2839,-18.8523 176.4085,-20.6258"/>
</g>
<!-- 4381296120 -->
<g id="node11" class="node">
<title>4381296120</title>
<polygon fill="#eeeeee" stroke="transparent" points="234.3467,-18 213.2149,-18 213.2149,0 234.3467,0 234.3467,-18"/>
<text text-anchor="middle" x="223.7808" y="-6" font-family="sans" font-size="10.00" fill="#000000">»</text>
</g>
<!-- 4381220936&#45;&gt;4381296120 -->
<g id="edge10" class="edge">
<title>4381220936&#45;&gt;4381296120</title>
<path fill="none" stroke="#c0c0c0" d="M181.2837,-27.7261C190.2806,-25.1048 200.0873,-21.8316 208.7808,-18 209.3227,-17.7612 209.869,-17.5065 210.4161,-17.2398"/>
<polygon fill="#c0c0c0" stroke="#c0c0c0" points="210.962,-18.1394 213.1389,-15.8235 209.9929,-16.2764 210.962,-18.1394"/>
</g>
</g>
</svg>
