<?xml version="1.0" encoding="UTF-8" standalone="no"?>
<!DOCTYPE svg PUBLIC "-//W3C//DTD SVG 1.1//EN"
 "http://www.w3.org/Graphics/SVG/1.1/DTD/svg11.dtd">
<!-- Generated by graphviz version 2.40.1 (20161225.0304)
 -->
<!-- Title: G Pages: 1 -->
<svg width="277pt" height="138pt"
 viewBox="0.00 0.00 276.70 138.00" xmlns="http://www.w3.org/2000/svg" xmlns:xlink="http://www.w3.org/1999/xlink">
<g id="graph0" class="graph" transform="scale(1 1) rotate(0) translate(4 134)">
<title>G</title>
<polygon fill="#ffffff" stroke="transparent" points="-4,4 -4,-134 272.7041,-134 272.7041,4 -4,4"/>
<!-- 0 -->
<g id="node1" class="node">
<title>0</title>
<polygon fill="#dbdb8d" stroke="transparent" points="155.1648,-130 112.8127,-130 112.8127,-112 155.1648,-112 155.1648,-130"/>
<text text-anchor="middle" x="133.9888" y="-118" font-family="sans" font-size="10.00" fill="#000000">Name</text>
</g>
<!-- 1 -->
<g id="node2" class="node">
<title>1</title>
<polygon fill="#dbdb8d" stroke="transparent" points="177.9663,-95 .0112,-95 .0112,-77 177.9663,-77 177.9663,-95"/>
<text text-anchor="middle" x="88.9888" y="-83" font-family="sans" font-size="10.00" fill="#000000">Name.first.inflected(nomn, sing)^gnc</text>
</g>
<!-- 0&#45;&gt;1 -->
<g id="edge1" class="edge">
<title>0&#45;&gt;1</title>
<path fill="none" stroke="#c0c0c0" d="M122.1655,-111.8042C116.3325,-107.2673 109.2531,-101.7612 103.1344,-97.0022"/>
<polygon fill="#c0c0c0" stroke="#c0c0c0" points="103.5901,-96.0264 100.5774,-95.0134 102.3008,-97.6841 103.5901,-96.0264"/>
</g>
<!-- 3 -->
<g id="node4" class="node">
<title>3</title>
<polygon fill="#dbdb8d" stroke="transparent" points="268.92,-53 91.0576,-53 91.0576,-35 268.92,-35 268.92,-53"/>
<text text-anchor="middle" x="179.9888" y="-41" font-family="sans" font-size="10.00" fill="#000000">Name.last.inflected(nomn, sing)^gnc</text>
</g>
<!-- 0&#45;&gt;3 -->
<g id="edge2" class="edge">
<title>0&#45;&gt;3</title>
<path fill="none" stroke="#c0c0c0" d="M155.3278,-112.282C162.7664,-108.1561 170.3944,-102.4653 174.9888,-95 182.1726,-83.3271 182.5207,-67.2331 181.6589,-56.2669"/>
<polygon fill="#c0c0c0" stroke="#c0c0c0" points="182.6821,-55.9287 181.3589,-53.0388 180.5911,-56.1232 182.6821,-55.9287"/>
</g>
<!-- 2 -->
<g id="node3" class="node">
<title>2</title>
<polygon fill="#eeeeee" stroke="transparent" points="90.5526,-53 49.425,-53 49.425,-35 90.5526,-35 90.5526,-53"/>
<text text-anchor="middle" x="69.9888" y="-41" font-family="sans" font-size="10.00" fill="#000000">Сашу</text>
</g>
<!-- 1&#45;&gt;2 -->
<g id="edge3" class="edge">
<title>1&#45;&gt;2</title>
<path fill="none" stroke="#c0c0c0" d="M84.7721,-76.6788C82.0286,-70.6144 78.4233,-62.6447 75.4599,-56.094"/>
<polygon fill="#c0c0c0" stroke="#c0c0c0" points="76.2565,-55.3074 74.0633,-53.0068 74.3432,-56.173 76.2565,-55.3074"/>
</g>
<!-- 1&#45;&gt;3 -->
<g id="edge5" class="edge">
<title>1&#45;&gt;3</title>
<path fill="none" stroke="#c0c0c0" stroke-dasharray="5,2" d="M108.7344,-76.8866C123.9982,-69.8418 145.0276,-60.1359 160.2817,-53.0956"/>
<text text-anchor="middle" x="149.438" y="-62.6" font-family="sans" font-size="8.00" fill="#c0c0c0">gnc</text>
</g>
<!-- 4 -->
<g id="node5" class="node">
<title>4</title>
<polygon fill="#eeeeee" stroke="transparent" points="207.8522,-18 152.1253,-18 152.1253,0 207.8522,0 207.8522,-18"/>
<text text-anchor="middle" x="179.9888" y="-6" font-family="sans" font-size="10.00" fill="#000000">Иванову</text>
</g>
<!-- 3&#45;&gt;4 -->
<g id="edge4" class="edge">
<title>3&#45;&gt;4</title>
<path fill="none" stroke="#c0c0c0" d="M179.9888,-34.8042C179.9888,-30.5914 179.9888,-25.5428 179.9888,-21.0328"/>
<polygon fill="#c0c0c0" stroke="#c0c0c0" points="181.0389,-21.0133 179.9888,-18.0134 178.9389,-21.0134 181.0389,-21.0133"/>
</g>
</g>
</svg>
