<?xml version="1.0" encoding="UTF-8" standalone="no"?>
<!DOCTYPE svg PUBLIC "-//W3C//DTD SVG 1.1//EN"
 "http://www.w3.org/Graphics/SVG/1.1/DTD/svg11.dtd">
<!-- Generated by graphviz version 2.40.1 (20161225.0304)
 -->
<!-- Title: G Pages: 1 -->
<svg width="247pt" height="78pt"
 viewBox="0.00 0.00 246.61 78.00" xmlns="http://www.w3.org/2000/svg" xmlns:xlink="http://www.w3.org/1999/xlink">
<g id="graph0" class="graph" transform="scale(1 1) rotate(0) translate(4 74)">
<title>G</title>
<polygon fill="#ffffff" stroke="transparent" points="-4,4 -4,-74 242.6123,-74 242.6123,4 -4,4"/>
<!-- 0 -->
<g id="node1" class="node">
<title>0</title>
<polygon fill="#aec7e8" stroke="transparent" points="135.4781,-70 99.3402,-70 99.3402,-52 135.4781,-52 135.4781,-70"/>
<text text-anchor="middle" x="117.4092" y="-58" font-family="sans" font-size="10.00" fill="#000000">Rule</text>
</g>
<!-- 1 -->
<g id="node2" class="node">
<title>1</title>
<polygon fill="#aec7e8" stroke="transparent" points="149.2171,-44 85.6013,-44 85.6013,-26 149.2171,-26 149.2171,-44"/>
<text text-anchor="middle" x="117.4092" y="-32" font-family="sans" font-size="10.00" fill="#000000">Production</text>
</g>
<!-- 0&#45;&gt;1 -->
<g id="edge1" class="edge">
<title>0&#45;&gt;1</title>
<path fill="none" stroke="#c0c0c0" d="M117.4092,-51.9065C117.4092,-50.5226 117.4092,-49.0737 117.4092,-47.6308"/>
<polygon fill="#c0c0c0" stroke="#c0c0c0" points="118.4593,-47.3085 117.4092,-44.3086 116.3593,-47.3086 118.4593,-47.3085"/>
</g>
<!-- 2 -->
<g id="node3" class="node">
<title>2</title>
<polygon fill="#eeeeee" stroke="transparent" points="114.7277,-18 .0907,-18 .0907,0 114.7277,0 114.7277,-18"/>
<text text-anchor="middle" x="57.4092" y="-6" font-family="sans" font-size="10.00" fill="#000000">normalized(&#39;главный&#39;)</text>
</g>
<!-- 1&#45;&gt;2 -->
<g id="edge2" class="edge">
<title>1&#45;&gt;2</title>
<path fill="none" stroke="#c0c0c0" d="M96.4241,-25.9065C91.5198,-23.7813 86.2612,-21.5025 81.2431,-19.328"/>
<polygon fill="#c0c0c0" stroke="#c0c0c0" points="81.654,-18.3618 78.4838,-18.1324 80.819,-20.2887 81.654,-18.3618"/>
</g>
<!-- 3 -->
<g id="node4" class="node">
<title>3</title>
<polygon fill="#eeeeee" stroke="transparent" points="238.8161,-18 116.0023,-18 116.0023,0 238.8161,0 238.8161,-18"/>
<text text-anchor="middle" x="177.4092" y="-6" font-family="sans" font-size="10.00" fill="#000000">normalized(&#39;бухгалтер&#39;)</text>
</g>
<!-- 1&#45;&gt;3 -->
<g id="edge3" class="edge">
<title>1&#45;&gt;3</title>
<path fill="none" stroke="#888888" d="M138.3943,-25.9065C143.2985,-23.7813 148.5572,-21.5025 153.5752,-19.328"/>
<polygon fill="#888888" stroke="#888888" points="153.9994,-20.2887 156.3345,-18.1324 153.1643,-18.3618 153.9994,-20.2887"/>
</g>
</g>
</svg>
